<svg xmlns="http://www.w3.org/2000/svg" viewBox="0 0 337 71">
  <!-- Main text "nibble" - this path will change color based on background -->
  <path id="dynamic-path" fill="currentColor" d="M3.696 55V15.8H17.752L25.536 49.96H26.544V15.8H33.824V55H19.768L11.984 20.84H10.976V55H3.696ZM41.4356 55V27.224H48.4916V55H41.4356ZM44.9636 23.976C43.6943 23.976 42.6116 23.5653 41.7156 22.744C40.857 21.9227 40.4276 20.84 40.4276 19.496C40.4276 18.152 40.857 17.0693 41.7156 16.248C42.6116 15.4267 43.6943 15.016 44.9636 15.016C46.2703 15.016 47.353 15.4267 48.2116 16.248C49.0703 17.0693 49.4996 18.152 49.4996 19.496C49.4996 20.84 49.0703 21.9227 48.2116 22.744C47.353 23.5653 46.2703 23.976 44.9636 23.976ZM72.9986 55.784C70.4973 55.784 68.5746 55.3547 67.2306 54.496C65.8866 53.6373 64.8973 52.6853 64.2626 51.64H63.2546V55H56.3106V15.8H63.3666V30.416H64.3746C64.7853 29.744 65.3266 29.1093 65.9986 28.512C66.708 27.9147 67.6226 27.4293 68.7426 27.056C69.9 26.6453 71.3186 26.44 72.9986 26.44C75.2386 26.44 77.3106 27 79.2146 28.12C81.1186 29.2027 82.6493 30.808 83.8066 32.936C84.964 35.064 85.5426 37.64 85.5426 40.664V41.56C85.5426 44.584 84.964 47.16 83.8066 49.288C82.6493 51.416 81.1186 53.04 79.2146 54.16C77.3106 55.2427 75.2386 55.784 72.9986 55.784ZM70.8706 49.624C73.036 49.624 74.8466 48.9333 76.3026 47.552C77.7586 46.1333 78.4866 44.08 78.4866 41.392V40.832C78.4866 38.144 77.7586 36.1093 76.3026 34.728C74.884 33.3093 73.0733 32.6 70.8706 32.6C68.7053 32.6 66.8946 33.3093 65.4386 34.728C63.9826 36.1093 63.2546 38.144 63.2546 40.832V41.392C63.2546 44.08 63.9826 46.1333 65.4386 47.552C66.8946 48.9333 68.7053 49.624 70.8706 49.624ZM108.71 55.784C106.208 55.784 104.286 55.3547 102.942 54.496C101.598 53.6373 100.608 52.6853 99.9736 51.64H98.9656V55H92.0216V15.8H99.0776V30.416H100.086C100.496 29.744 101.038 29.1093 101.71 28.512C102.419 27.9147 103.334 27.4293 104.454 27.056C105.611 26.6453 107.03 26.44 108.71 26.44C110.95 26.44 113.022 27 114.926 28.12C116.83 29.2027 118.36 30.808 119.518 32.936C120.675 35.064 121.254 37.64 121.254 40.664V41.56C121.254 44.584 120.675 47.16 119.518 49.288C118.36 51.416 116.83 53.04 114.926 54.16C113.022 55.2427 110.95 55.784 108.71 55.784ZM106.582 49.624C108.747 49.624 110.558 48.9333 112.014 47.552C113.47 46.1333 114.198 44.08 114.198 41.392V40.832C114.198 38.144 113.47 36.1093 112.014 34.728C110.595 33.3093 108.784 32.6 106.582 32.6C104.416 32.6 102.606 33.3093 101.15 34.728C99.6936 36.1093 98.9656 38.144 98.9656 40.832V41.392C98.9656 44.08 99.6936 46.1333 101.15 47.552C102.606 48.9333 104.416 49.624 106.582 49.624ZM127.733 55V15.8H134.789V55H127.733ZM155.264 55.784C152.501 55.784 150.056 55.2053 147.928 54.048C145.837 52.8533 144.194 51.192 143 49.064C141.842 46.8987 141.264 44.36 141.264 41.448V40.776C141.264 37.864 141.842 35.344 143 33.216C144.157 31.0507 145.781 29.3893 147.872 28.232C149.962 27.0373 152.389 26.44 155.151 26.44C157.877 26.44 160.248 27.056 162.264 28.288C164.28 29.4827 165.848 31.1627 166.967 33.328C168.088 35.456 168.648 37.9387 168.648 40.776V43.184H148.432C148.506 45.088 149.216 46.6373 150.56 47.832C151.904 49.0267 153.546 49.624 155.488 49.624C157.466 49.624 158.922 49.1947 159.856 48.336C160.789 47.4773 161.498 46.5253 161.984 45.48L167.752 48.504C167.229 49.4747 166.464 50.5387 165.456 51.696C164.485 52.816 163.178 53.7867 161.536 54.608C159.893 55.392 157.802 55.784 155.264 55.784ZM148.488 37.92H161.48C161.33 36.3147 160.677 35.0267 159.52 34.056C158.4 33.0853 156.925 32.6 155.096 32.6C153.192 32.6 151.68 33.0853 150.56 34.056C149.44 35.0267 148.749 36.3147 148.488 37.92Z"/>
  
  <!-- Secondary gray text -->
  <path d="M184.016 32.664C186.363 32.664 188.421 33.1227 190.192 34.04C191.984 34.9573 193.36 36.2693 194.32 37.976C195.301 39.6613 195.792 41.624 195.792 43.864C195.792 46.104 195.301 48.0667 194.32 49.752C193.36 51.416 191.984 52.7067 190.192 53.624C188.421 54.5413 186.363 55 184.016 55H176.208V32.664H184.016ZM183.856 51.192C186.203 51.192 188.016 50.552 189.296 49.272C190.576 47.992 191.216 46.1893 191.216 43.864C191.216 41.5387 190.576 39.7253 189.296 38.424C188.016 37.1013 186.203 36.44 183.856 36.44H180.688V51.192H183.856ZM215.626 45.752C215.626 46.392 215.583 46.968 215.498 47.48H202.538C202.644 48.76 203.092 49.7627 203.882 50.488C204.671 51.2133 205.642 51.576 206.794 51.576C208.458 51.576 209.642 50.8613 210.346 49.432H215.178C214.666 51.1387 213.684 52.5467 212.234 53.656C210.783 54.744 209.002 55.288 206.89 55.288C205.183 55.288 203.647 54.9147 202.282 54.168C200.938 53.4 199.882 52.3227 199.114 50.936C198.367 49.5493 197.993 47.9493 197.993 46.136C197.993 44.3013 198.367 42.6907 199.114 41.304C199.86 39.9173 200.906 38.8507 202.25 38.104C203.594 37.3573 205.14 36.984 206.89 36.984C208.575 36.984 210.079 37.3467 211.402 38.072C212.746 38.7973 213.78 39.832 214.506 41.176C215.252 42.4987 215.626 44.024 215.626 45.752ZM210.986 44.472C210.964 43.32 210.548 42.4027 209.738 41.72C208.927 41.016 207.935 40.664 206.762 40.664C205.652 40.664 204.714 41.0053 203.946 41.688C203.199 42.3493 202.74 43.2773 202.57 44.472H210.986ZM226.288 50.872L230.768 37.272H235.536L228.976 55H223.536L217.008 37.272H221.808L226.288 50.872ZM260.877 32.664V36.28H254.925V55H250.445V36.28H244.493V32.664H260.877ZM280.626 45.752C280.626 46.392 280.583 46.968 280.498 47.48H267.538C267.644 48.76 268.092 49.7627 268.882 50.488C269.671 51.2133 270.642 51.576 271.794 51.576C273.458 51.576 274.642 50.8613 275.346 49.432H280.178C279.666 51.1387 278.684 52.5467 277.234 53.656C275.783 54.744 274.002 55.288 271.89 55.288C270.183 55.288 268.647 54.9147 267.282 54.168C265.938 53.4 264.882 52.3227 264.114 50.936C263.367 49.5493 262.993 47.9493 262.993 46.136C262.993 44.3013 263.367 42.6907 264.114 41.304C264.86 39.9173 265.906 38.8507 267.25 38.104C268.594 37.3573 270.14 36.984 271.89 36.984C273.575 36.984 275.079 37.3467 276.402 38.072C277.746 38.7973 278.78 39.832 279.506 41.176C280.252 42.4987 280.626 44.024 280.626 45.752ZM275.986 44.472C275.964 43.32 275.548 42.4027 274.738 41.72C273.927 41.016 272.935 40.664 271.762 40.664C270.652 40.664 269.714 41.0053 268.946 41.688C268.199 42.3493 267.74 43.2773 267.57 44.472H275.986ZM282.743 46.072C282.743 44.28 283.095 42.6907 283.799 41.304C284.525 39.9173 285.496 38.8507 286.712 38.104C287.949 37.3573 289.325 36.984 290.84 36.984C292.162 36.984 293.314 37.2507 294.296 37.784C295.298 38.3173 296.098 38.9893 296.696 39.8V37.272H301.208V55H296.696V52.408C296.12 53.24 295.32 53.9333 294.296 54.488C293.293 55.0213 292.13 55.288 290.808 55.288C289.314 55.288 287.949 54.904 286.712 54.136C285.496 53.368 284.525 52.2907 283.799 50.904C283.095 49.496 282.743 47.8853 282.743 46.072ZM296.696 46.136C296.696 45.048 296.482 44.12 296.056 43.352C295.629 42.5627 295.053 41.9653 294.328 41.56C293.602 41.1333 292.824 40.92 291.992 40.92C291.16 40.92 290.392 41.1227 289.688 41.528C288.984 41.9333 288.408 42.5307 287.96 43.32C287.533 44.088 287.32 45.0053 287.32 46.072C287.32 47.1387 287.533 48.0773 287.96 48.888C288.408 49.6773 288.984 50.2853 289.688 50.712C290.413 51.1387 291.181 51.352 291.992 51.352C292.824 51.352 293.602 51.1493 294.328 50.744C295.053 50.3173 295.629 49.72 296.056 48.952C296.482 48.1627 296.696 47.224 296.696 46.136ZM327.599 37.016C329.775 37.016 331.524 37.688 332.847 39.032C334.191 40.3547 334.863 42.2107 334.863 44.6V55H330.383V45.208C330.383 43.8213 330.031 42.7653 329.327 42.04C328.623 41.2933 327.663 40.92 326.447 40.92C325.231 40.92 324.26 41.2933 323.535 42.04C322.831 42.7653 322.479 43.8213 322.479 45.208V55H317.999V45.208C317.999 43.8213 317.647 42.7653 316.943 42.04C316.239 41.2933 315.279 40.92 314.063 40.92C312.826 40.92 311.844 41.2933 311.119 42.04C310.415 42.7653 310.063 43.8213 310.063 45.208V55H305.583V37.272H310.063V39.416C310.639 38.6693 311.375 38.0827 312.271 37.656C313.188 37.2293 314.191 37.016 315.279 37.016C316.666 37.016 317.903 37.3147 318.991 37.912C320.079 38.488 320.922 39.32 321.519 40.408C322.095 39.384 322.927 38.5627 324.015 37.944C325.124 37.3253 326.319 37.016 327.599 37.016Z" fill="#9D9D9D"/>
  
  <!-- Red dot accent -->
  <rect x="40" y="15" width="10" height="9" rx="4.5" fill="#990000"/>

</svg>