<svg width="140" height="140" viewBox="0 0 140 140" fill="none" xmlns="http://www.w3.org/2000/svg">
<g opacity="0.8" clip-path="url(#clip0_40_5528)">
<path d="M62.589 139.853L61.5149 139.728C36.9474 136.786 10.4013 111.203 2.35156 82.6895L2.75857 82.5537C5.70939 90.1121 17.1961 95.6112 34.2679 97.6592H34.4149L34.4488 97.8176C40.0565 117.675 49.9604 132.803 61.6393 139.332L62.589 139.864V139.853ZM3.44823 84.8506C12.052 111.871 37.0378 135.734 60.4974 139.162C49.1577 132.328 39.5703 117.438 34.0757 98.0665C18.5528 96.1882 7.62008 91.436 3.44823 84.8506Z" fill="white"/>
<path d="M41.3906 116.68C31.8937 115.548 21.6506 105.67 18.5415 94.6722L18.9598 94.5591C22.0237 105.41 32.1085 115.152 41.4471 116.261L41.4019 116.691L41.3906 116.68Z" fill="white"/>
<path d="M50.7179 130.733C32.9225 128.605 13.7026 110.083 7.88013 89.433L8.29844 89.3198C14.087 109.811 33.1373 128.198 50.7744 130.303L50.7292 130.733H50.7179Z" fill="white"/>
<path d="M37.0039 129.963C31.2945 125.788 30.2091 114.066 34.0418 97.8174L34.4601 97.9192C30.6726 113.986 31.7015 125.55 37.2639 129.612L37.0152 129.963H37.0039Z" fill="white"/>
<path d="M34.5393 98.1232L34.2227 98.0893C16.9813 96.03 5.37024 90.4291 2.36289 82.7123C-1.98985 67.29 -0.237446 53.4857 7.17917 44.8071C13.013 37.9842 21.9898 34.9066 32.4477 36.1625L32.6851 36.1965L32.6286 36.4341C28.1741 55.5677 28.8411 77.9373 34.4488 97.8177L34.5393 98.1232ZM27.9593 36.3209C19.5477 36.3209 12.3912 39.3646 7.50704 45.09C0.192175 53.6554 -1.53762 67.3126 2.7699 82.5765C5.69811 90.067 17.0605 95.5434 33.9514 97.6254C28.4228 77.8355 27.7671 55.6129 32.165 36.5699C30.7405 36.4114 29.3386 36.3322 27.9706 36.3322L27.9593 36.3209Z" fill="white"/>
<path d="M18.5416 94.6608C16.857 88.6978 17.5466 83.3458 20.4183 79.974C22.6908 77.3149 26.173 76.1155 30.2431 76.6021L30.1979 77.0321C26.2747 76.5682 22.9169 77.711 20.7462 80.2568C17.965 83.5155 17.3092 88.7204 18.9486 94.5363L18.5302 94.6495L18.5416 94.6608Z" fill="white"/>
<path d="M7.88013 89.4334C4.72581 78.2768 6.00337 68.2744 11.3849 61.9833C15.6133 57.0273 22.1255 54.7983 29.7117 55.7148L29.6665 56.1447C22.2272 55.2509 15.8507 57.4346 11.7128 62.2661C6.43299 68.4441 5.18935 78.3107 8.29845 89.3315L7.88013 89.4447V89.4334Z" fill="white"/>
<path d="M34.1323 98.0442C16.4387 86.1974 4.38664 71.3748 1.07404 57.3782L1.49235 57.2764C4.78235 71.1711 16.7665 85.8919 34.3697 97.6934L34.1323 98.0442Z" fill="white"/>
<path d="M34.0757 97.9988C20.5427 79.7365 12.4138 58.8604 11.7806 40.7451H12.2103C12.8434 58.7698 20.9384 79.5441 34.4262 97.7499L34.087 98.0101L34.0757 97.9988Z" fill="white"/>
<path d="M49.3612 98.9378C44.104 98.9378 39.0164 98.6549 34.2227 98.0778H34.0757L34.0418 97.9194C28.4115 77.9711 27.7445 55.5223 32.2216 36.3208L32.2668 36.1284L32.459 36.151C57.0265 39.0929 83.5726 64.6761 91.6224 93.1898L91.6789 93.4047L91.4641 93.4613C77.6371 97.0595 62.9395 98.9378 49.3725 98.9378H49.3612ZM34.4149 97.6705C51.4528 99.6845 72.1085 98.0212 91.1362 93.0992C83.0751 64.9024 56.8909 39.6247 32.5946 36.6036C28.1967 55.6467 28.8637 77.8919 34.4149 97.6705Z" fill="white"/>
<path d="M52.6851 98.7453C49.6212 87.8943 39.5364 78.1521 30.1978 77.0432L30.243 76.6133C39.7399 77.7448 49.983 87.6227 53.0921 98.6322L52.6738 98.7453H52.6851Z" fill="white"/>
<path d="M72.1424 97.1159C66.3538 76.6245 47.3035 58.2377 29.6664 56.1331L29.7117 55.7031C47.507 57.8303 66.7269 76.3529 72.5494 97.0027L72.1311 97.1159H72.1424Z" fill="white"/>
<path d="M34.4601 97.9196L34.0418 97.8177C37.8519 81.6373 46.0938 62.7413 56.6535 45.9839L57.0152 46.2102C46.4782 62.9337 38.2589 81.7844 34.4601 97.9196Z" fill="white"/>
<path d="M66.0034 140C64.5449 140 63.0412 139.909 61.5149 139.728L61.4358 139.706C49.6664 133.132 39.6834 117.902 34.0418 97.9309L33.9514 97.6254L34.2679 97.6593C51.3962 99.7073 72.199 98.0327 91.3397 93.0541L91.5432 92.9976L91.5997 93.2012C95.9412 108.601 94.1888 122.405 86.7722 131.084C81.7976 136.911 74.528 140 65.9921 140H66.0034ZM61.6054 139.31C71.905 140.52 80.7348 137.511 86.4556 130.801C93.7365 122.269 95.4889 108.691 91.2493 93.518C72.2329 98.4401 51.5997 100.115 34.5393 98.1232C40.1582 117.811 50.0056 132.804 61.6054 139.31Z" fill="white"/>
<path d="M43.1317 116.782C42.5664 116.782 41.9785 116.748 41.3906 116.68L41.4358 116.25C45.3476 116.714 48.7167 115.571 50.8875 113.025C53.6687 109.766 54.3244 104.561 52.6851 98.7455L53.1034 98.6323C54.788 104.595 54.0983 109.947 51.2266 113.308C49.2933 115.582 46.4556 116.782 43.143 116.782H43.1317Z" fill="white"/>
<path d="M53.974 130.925C52.9112 130.925 51.8259 130.857 50.7179 130.733L50.7631 130.303C58.2137 131.197 64.5788 129.013 68.7168 124.181C73.9966 118.003 75.2402 108.137 72.1311 97.1273L72.5494 97.0142C75.7038 108.171 74.4262 118.173 69.0446 124.464C65.4268 128.696 60.1583 130.936 53.9627 130.936L53.974 130.925Z" fill="white"/>
<path d="M92.6738 118.773C73.1487 117.449 51.8146 109.891 34.1323 98.0441L34.3697 97.6934C51.9842 109.495 73.2504 117.019 92.7077 118.343L92.6738 118.773Z" fill="white"/>
<path d="M81.9107 135.361C65.0537 129.884 47.6201 116.261 34.0757 97.9985L34.4149 97.7383C47.9028 115.933 65.2572 129.499 82.035 134.942L81.8994 135.349L81.9107 135.361Z" fill="white"/>
<path d="M66.0034 140C64.8728 140 63.7309 139.943 62.5551 139.841L62.589 139.864L61.4697 139.728C52.606 138.665 43.1995 134.625 34.2566 128.04C32.1085 126.377 29.4064 124.17 27.5297 122.541C26.693 121.828 25.7094 120.855 24.8502 119.995C24.5788 119.723 24.3188 119.475 24.0814 119.237C22.035 117.257 18.9372 113.67 17.2414 111.498C15.9751 109.879 14.3245 107.537 12.1763 104.335C11.5658 103.419 10.8762 102.231 10.2657 101.167L9.89257 100.533C9.20292 99.3566 8.32106 97.6933 7.69924 96.4034C6.87392 94.7061 5.82247 92.3639 5.07629 90.5875C4.01354 87.9737 3.09777 85.3147 2.36289 82.7009C-1.98985 67.29 -0.237446 53.4857 7.17917 44.8071C13.013 37.9842 21.9898 34.9066 32.4477 36.1625C57.0152 39.1044 83.5613 64.6875 91.6111 93.2012C95.9525 108.601 94.2001 122.405 86.7835 131.084C81.8089 136.911 74.5393 140 66.0034 140ZM61.6054 139.31C71.905 140.52 80.7349 137.511 86.4556 130.801C93.7705 122.235 95.5003 108.567 91.1927 93.3144C83.1882 64.9591 56.8117 39.5117 32.3912 36.5925C22.0689 35.3592 13.2278 38.3802 7.49574 45.09C0.192175 53.6554 -1.53762 67.3126 2.7699 82.5765C3.50478 85.1789 4.40925 87.8153 5.47199 90.4177C6.21818 92.1942 7.26962 94.5251 8.08364 96.211C8.70546 97.4896 9.57601 99.1416 10.2657 100.318L10.6388 100.952C11.2493 102.004 11.9276 103.192 12.5381 104.098C14.6749 107.288 16.3256 109.619 17.5805 111.237C19.2651 113.41 22.3516 116.963 24.3866 118.943C24.6354 119.18 24.8954 119.441 25.1667 119.701C26.026 120.549 27.0096 121.511 27.8349 122.224C29.7117 123.842 32.4025 126.049 34.5393 127.701C43.0752 133.98 52.0294 137.929 60.52 139.163C49.1577 132.317 39.5477 117.37 34.0644 97.9309L34.4827 97.8177C40.0791 117.653 49.983 132.781 61.6393 139.31H61.6054Z" fill="white"/>
<path d="M62.589 139.853L61.5149 139.729C36.9474 136.787 10.4013 111.204 2.35156 82.69L2.75857 82.5542C5.70939 90.1126 17.1961 95.6117 34.2679 97.6597H34.4149L34.4488 97.8181C40.0565 117.676 49.9604 132.804 61.6393 139.333L62.589 139.864V139.853ZM3.44823 84.8511C12.052 111.871 37.0378 135.735 60.4974 139.163C49.1577 132.329 39.5703 117.438 34.0757 98.067C18.5528 96.1887 7.62008 91.4364 3.44823 84.8511Z" fill="white"/>
<path d="M16.0203 109.733C15.9298 109.733 15.8846 109.699 15.8507 109.676C15.8168 109.642 15.6924 109.529 15.7716 109.314L16.1786 109.461C16.1786 109.461 16.1786 109.405 16.1447 109.36C16.1107 109.314 16.0655 109.303 16.0542 109.303C16.3595 109.303 18.5867 108.432 34.1209 97.6938L34.3583 98.0446C19.1407 108.568 16.5856 109.733 16.009 109.733H16.0203Z" fill="white"/>
<path d="M34.2679 128.04C34.1096 127.927 33.9626 127.814 33.8043 127.701C32.7529 126.92 31.4414 125.924 30.4804 125.098C30.3221 124.963 30.1526 124.815 29.9717 124.668C29.6664 124.408 29.3612 124.148 29.0672 123.888C28.4002 123.311 27.6879 122.7 27.1226 122.19C26.3651 121.5 25.4493 120.606 24.6466 119.814L23.9909 119.169C21.2662 116.522 18.338 112.878 17.2413 111.509C15.602 109.472 14.9462 108.488 12.1763 104.347C11.5432 103.396 10.8422 102.186 10.2204 101.111L9.79077 100.364C8.82978 98.7118 7.73312 96.4715 6.87387 94.7176C6.67037 94.2877 6.45556 93.8125 6.22944 93.3033C5.82243 92.3981 5.43803 91.4929 5.06494 90.5877L5.46065 90.418C5.63023 90.814 5.82243 91.2553 6.01463 91.7079C6.21814 92.1831 6.42164 92.6696 6.62514 93.1336C11.758 104.528 19.7851 115.254 29.3272 123.548C29.4968 123.695 29.6664 123.842 29.8247 123.978C29.9717 124.103 30.1073 124.227 30.243 124.34C31.4866 125.393 32.7529 126.388 34.0305 127.361C34.1887 127.486 34.347 127.599 34.494 127.701L34.2453 128.052L34.2679 128.04Z" fill="white"/>
<path d="M2.40812 82.8707L2.36289 82.6896C-1.98985 67.29 -0.237446 53.4857 7.17917 44.8071C13.013 37.9842 21.9898 34.9066 32.4477 36.1625H32.5381L32.5947 36.2417C38.1006 43.223 44.2057 47.0701 50.1978 47.6246C53.1713 44.4677 57.5692 43.0646 62.6681 43.6756L63.1882 43.7322L62.7812 44.049C58.8807 47.0928 54.6636 48.4053 50.3674 48.0659C50.277 48.1564 50.1978 48.2582 50.1074 48.36C46.4217 52.671 45.5624 59.5505 47.7332 67.2447L47.7784 67.3805L47.6653 67.471C38.225 74.8257 21.3793 80.5737 2.61162 82.8367L2.43073 82.8594L2.40812 82.8707ZM27.9706 36.3209C19.559 36.3209 12.4025 39.3646 7.51835 45.09C0.214786 53.6215 -1.52631 67.2108 2.71337 82.3954C21.2662 80.1325 37.8858 74.475 47.2583 67.2334C45.0989 59.46 46.0034 52.49 49.7569 48.0885C49.7795 48.0659 49.7908 48.0432 49.8134 48.0206C43.844 47.353 37.784 43.4833 32.3007 36.5699C30.8196 36.4001 29.3725 36.3096 27.9593 36.3096L27.9706 36.3209ZM50.7518 47.6698C54.641 47.8961 58.4963 46.7081 62.0689 44.049C57.4788 43.6191 53.5104 44.8977 50.7518 47.6698Z" fill="white"/>
<path d="M19.8417 79.442C16.6196 68.0252 17.9197 57.7852 23.4257 51.347C27.7558 46.2779 34.4149 44.0036 42.182 44.9314L42.1368 45.3614C34.5167 44.4449 27.9932 46.6739 23.7535 51.6299C18.3493 57.9549 17.0718 68.0592 20.26 79.3289L19.8417 79.442Z" fill="white"/>
<path d="M35.3307 74.2259C32.8547 65.4455 33.8609 57.559 38.0893 52.603C41.4245 48.6994 46.546 46.9456 52.5381 47.6584L52.4929 48.0884C46.6591 47.3982 41.6619 49.0954 38.4285 52.8859C34.2905 57.7287 33.3182 65.4682 35.749 74.1128L35.3307 74.2259Z" fill="white"/>
<path d="M38.6659 50.6683C30.7179 50.6683 21.4245 47.3643 11.8711 40.9035L12.1085 40.5527C27.8462 51.1888 42.8151 53.2029 52.1537 45.9273L52.4138 46.2668C48.6263 49.22 43.9457 50.6683 38.6659 50.6683Z" fill="white"/>
<path d="M91.758 93.7331L91.2832 93.4276C87.3035 90.9044 85.1215 87.8041 84.9519 84.4549C84.8841 82.95 85.2233 81.4111 85.9468 79.861C79.3669 66.6564 69.1464 54.9228 57.7049 46.9684C49.3725 50.2271 40.1809 46.5611 32.2442 36.5021L31.9163 36.0947L32.4364 36.1513C40.9158 37.1696 49.6325 40.881 57.7501 46.4819C59.3669 45.8256 60.9497 44.9091 62.4873 43.7097L62.5551 43.6531H62.6455C75.1272 45.158 88.6037 58.1476 92.6851 72.6194L92.7303 72.7552L92.6173 72.8457C89.6665 75.154 87.5749 77.5188 86.4217 79.8497C88.5585 84.1607 90.3109 88.6301 91.5998 93.1787L91.7467 93.7218L91.758 93.7331ZM86.2069 80.3588C85.6077 81.7393 85.325 83.1084 85.3929 84.4435C85.5398 87.4986 87.4844 90.3726 91.0458 92.76C89.8134 88.5396 88.1854 84.387 86.2182 80.3702L86.2069 80.3588ZM58.1911 46.776C69.5195 54.7192 79.6269 66.3283 86.2069 79.3858C87.394 77.1115 89.429 74.8258 92.2555 72.6081C88.1741 58.3739 74.9576 45.6332 62.7021 44.117C61.2436 45.2485 59.7286 46.1424 58.1911 46.7874V46.776ZM32.9225 36.6378C40.5653 46.1085 49.3273 49.6048 57.2866 46.6629C49.4743 41.3109 41.0967 37.7241 32.9225 36.6378Z" fill="white"/>
<path d="M85.6077 87.3063C79.6834 66.3283 60.1809 47.5115 42.1255 45.3504L42.1707 44.9204C60.3844 47.0929 80.0452 66.0568 86.0147 87.1818L85.5964 87.2949L85.6077 87.3063Z" fill="white"/>
<path d="M85.8338 80.2684C81.2888 64.1785 66.3312 49.7406 52.4929 48.0887L52.5381 47.6587C66.5348 49.3333 81.6619 63.907 86.2408 80.1439L85.8225 80.2571L85.8338 80.2684Z" fill="white"/>
<path d="M64.251 53.8591C63.3804 53.8591 62.5664 53.7233 61.8202 53.4517C59.2651 52.5239 57.4675 49.9894 56.6309 46.1423L57.0492 46.0518C57.8519 49.7517 59.5591 52.1731 61.9672 53.0557C65.2007 54.2325 69.6665 52.705 74.8672 48.6542L75.1272 48.9936C70.9893 52.2184 67.2809 53.8704 64.251 53.8704V53.8591Z" fill="white"/>
<path d="M66.0034 140C64.5449 140 63.0412 139.909 61.515 139.728L61.3228 139.706V139.513C61.8315 119.61 67.7897 103.317 77.2413 95.9508L77.3092 95.8943H77.3996C82.329 96.494 86.58 95.1588 89.4629 92.1377C86.6478 89.8747 85.0989 87.2609 84.9632 84.4662C84.771 80.5738 87.3374 76.4438 92.3685 72.5175L92.6173 72.3252L92.7077 72.6307C94.9237 80.4607 94.0192 87.4872 90.243 91.9114C90.1978 91.968 90.1413 92.0245 90.0961 92.0811C90.537 92.4206 91.0231 92.7487 91.5206 93.0768L91.5884 93.1221L91.611 93.2013C95.9525 108.601 94.2001 122.405 86.7835 131.084C81.8089 136.911 74.5393 140 66.0034 140ZM61.7637 139.321C71.9954 140.487 80.7688 137.477 86.4669 130.801C93.7705 122.247 95.5003 108.612 91.2267 93.3937C90.7292 93.0768 90.2543 92.7374 89.8021 92.3979C86.84 95.5209 82.4872 96.9126 77.4449 96.3355C68.1515 103.634 62.3064 119.678 61.7637 139.321ZM92.3798 73.0607C87.6314 76.8286 85.2233 80.7662 85.3928 84.4435C85.5172 87.1138 87.0209 89.6258 89.7569 91.8096C89.8134 91.753 89.8699 91.6851 89.9152 91.6285C93.5443 87.3741 94.4375 80.6191 92.3798 73.0494V73.0607Z" fill="white"/>
<path d="M67.0096 121.896C65.9242 121.896 64.8163 121.828 63.6744 121.692L63.7196 121.262C71.3397 122.167 77.8632 119.938 82.1029 114.994C87.5071 108.669 88.7846 98.5758 85.5964 87.2948L86.0147 87.1816C89.2368 98.5984 87.9367 108.838 82.4307 115.277C78.7337 119.61 73.3409 121.896 67.0096 121.896Z" fill="white"/>
<path d="M71.5997 106.87C70.7631 106.87 69.9039 106.813 69.0333 106.712L69.0785 106.282C74.9123 106.983 79.9095 105.275 83.143 101.484C87.2809 96.6413 88.2532 88.9018 85.8225 80.2572L86.2408 80.144C88.7168 88.9245 87.7105 96.811 83.4822 101.767C80.6331 105.105 76.4726 106.87 71.5997 106.87Z" fill="white"/>
<path d="M92.5042 118.683C83.3125 105.218 83.4934 92.7487 93.0129 85.3374L93.273 85.6769C83.9683 92.9297 83.81 105.184 92.8547 118.445L92.5042 118.683Z" fill="white"/>
<path d="M47.394 67.6747L47.3035 67.3692C45.0989 59.5392 45.992 52.5127 49.7682 48.0885C49.8134 48.0319 49.8699 47.9754 49.9152 47.9188C49.4742 47.5793 48.9881 47.2512 48.4906 46.9231L48.4228 46.8778L48.4002 46.7986C44.0588 31.3989 45.8112 17.5947 53.2278 8.91611C59.0503 2.09319 68.0271 -0.973162 78.485 0.282798L78.6772 0.305428V0.497783C78.1684 20.4008 72.2102 36.6943 62.7586 44.0604L62.6908 44.117H62.6003C57.671 43.5173 53.42 44.8524 50.537 47.8735C53.3521 50.1365 54.901 52.7503 55.0367 55.5451C55.2289 59.4374 52.6625 63.5674 47.6314 67.4937L47.3827 67.686L47.394 67.6747ZM50.2543 48.179C50.1978 48.2356 50.1526 48.3035 50.0961 48.3601C46.4669 52.6145 45.5737 59.3695 47.6314 66.9392C52.3798 63.1713 54.788 59.2337 54.6184 55.5564C54.494 52.886 52.9904 50.3741 50.2543 48.1903V48.179ZM48.7846 46.6062C49.282 46.9231 49.7569 47.2625 50.2091 47.602C53.1712 44.479 57.524 43.0873 62.5664 43.6644C71.8598 36.3662 77.7049 20.3216 78.2476 0.678822C68.0158 -0.497934 59.2425 2.52316 53.5443 9.19899C46.2408 17.7531 44.511 31.3876 48.7846 46.6062Z" fill="white"/>
<path d="M52.4138 46.2668L52.1537 45.9273C61.4924 38.6518 63.6065 23.32 57.8293 4.9106L58.2363 4.78613C64.0701 23.3653 61.8994 38.8781 52.4138 46.2668Z" fill="white"/>
<path d="M92.3799 73.0607L92.2894 72.7552C88.2419 58.4305 74.935 45.588 62.6116 44.1057L62.0916 44.0491L62.4986 43.7323C71.8598 36.4342 77.7501 20.2764 78.2476 0.497868V0.260254L78.485 0.282884C103.053 3.22477 129.599 28.8079 137.648 57.3216L137.716 57.5592L137.467 57.5932C118.768 59.8448 102.001 65.5589 92.6286 72.8683L92.3799 73.0607ZM63.1656 43.7436C75.4098 45.5088 88.4906 58.1702 92.6173 72.3252C102.058 65.095 118.666 59.4488 137.174 57.1858C129.112 29.0116 102.951 3.77921 78.6772 0.735482C78.1345 20.2538 72.3572 36.2645 63.1656 43.7436Z" fill="white"/>
<path d="M75.1159 48.9826L74.8558 48.6432C84.2397 41.3337 94.641 26.9298 102.679 10.1157L103.064 10.2968C95.0028 27.1561 84.5562 41.6166 75.1159 48.9713V48.9826Z" fill="white"/>
<path d="M85.8338 59.3128L85.5737 58.9733C94.9802 51.6412 109.316 40.9712 123.912 30.437L124.16 30.7878C109.576 41.3107 95.2515 51.9807 85.8338 59.3128Z" fill="white"/>
<path d="M112.041 104.12C110.582 104.12 109.079 104.03 107.552 103.849H107.462L107.405 103.769C101.899 96.7995 95.7942 92.9411 89.8022 92.3866C86.8287 95.5435 82.4308 96.9352 77.3318 96.3356L76.8118 96.279L77.2188 95.9622C81.1193 92.9184 85.3477 91.6059 89.6326 91.9454C89.723 91.8548 89.8022 91.753 89.8926 91.6512C93.5783 87.3402 94.4375 80.4607 92.2668 72.7665L92.2216 72.6307L92.3347 72.5402C101.775 65.1855 118.621 59.4375 137.388 57.1745L137.569 57.1519L137.614 57.3329C141.956 72.7326 140.204 86.5368 132.787 95.2154C127.812 101.043 120.543 104.132 112.007 104.132L112.041 104.12ZM107.688 103.43C117.965 104.641 126.772 101.62 132.493 94.9212C139.785 86.3897 141.526 72.8004 137.275 57.6158C118.722 59.8788 102.103 65.5362 92.7304 72.7778C94.8898 80.5512 93.9853 87.5212 90.2318 91.9227C90.2092 91.9454 90.1979 91.968 90.1752 91.9793C96.1447 92.6469 102.205 96.5166 107.688 103.43ZM77.931 95.9622C82.5212 96.3808 86.4896 95.1135 89.2482 92.3414C85.3477 92.1038 81.5037 93.3031 77.931 95.9622Z" fill="white"/>
<path d="M93.273 85.677L93.013 85.3375C102.476 77.9602 119.582 76.8853 138.79 82.4748L138.666 82.8935C119.593 77.3492 102.634 78.3901 93.273 85.6883V85.677Z" fill="white"/>
<path d="M86.6704 95.7587L86.2634 95.623C86.433 94.9893 86.4895 93.9823 86.4217 92.6358C86.3538 91.2893 86.1616 90.3049 85.9129 88.9584C85.7546 88.0985 85.4946 87.0575 85.2685 86.3334C84.7597 84.6814 84.0814 82.7465 83.5613 81.3887C83.3917 80.9474 81.8089 77.2814 80.6218 75.2447C79.6495 73.5701 78.2249 71.2732 77.0831 69.5307C76.5291 68.682 75.7264 67.6184 75.0141 66.7019C74.0983 65.5025 73.3861 64.6313 72.8547 64.0316C70.944 61.8931 69.4064 60.2524 68.2758 59.1435C67.6314 58.5099 66.7043 57.6386 65.9581 57.0163L65.2911 56.4619C64.7371 55.998 64.1379 55.4888 63.6291 55.0928C63.1317 54.6967 62.4759 54.2215 61.8993 53.7915L61.3453 53.3842C61.3453 53.3842 58.5189 51.3023 54.901 49.6276C54.0079 49.2203 51.7241 48.2246 49.7117 47.987C49.3725 47.9417 49.2255 47.9417 49.0785 47.953L49.0446 47.5231C49.3273 47.4891 50.3448 47.3081 51.5884 46.335C54.4827 44.0833 58.3041 43.1668 62.6342 43.676C75.1158 45.1695 88.5924 58.1591 92.6738 72.631C95.2402 81.7056 93.6235 89.5694 88.3663 93.6655C87.9253 94.0389 87.6653 94.2538 87.3374 94.6612C86.8852 95.2043 86.7156 95.5777 86.6478 95.7587H86.6704ZM50.243 47.6249C52.1876 47.953 54.2566 48.8469 55.0932 49.2316C58.745 50.9289 61.5828 53.0221 61.6054 53.0448L62.1594 53.4521C62.736 53.8821 63.3917 54.3573 63.9005 54.7533C64.4092 55.1493 65.0084 55.6585 65.5737 56.1337L66.2295 56.6882C66.987 57.3218 67.9253 58.2044 68.5698 58.838C69.7004 59.9469 71.2493 61.5989 73.1712 63.7374C73.7139 64.3484 74.4262 65.231 75.3533 66.4417C76.0655 67.3695 76.8682 68.4331 77.4335 69.3044C78.5867 71.0582 80.0113 73.3664 80.9836 75.041C82.1933 77.1343 83.7761 80.7777 83.9457 81.2529C84.4658 82.6107 85.1441 84.5569 85.6642 86.2202C85.8903 86.9557 86.1503 88.0193 86.3086 88.8679C86.5686 90.2597 86.7608 91.2554 86.8287 92.6358C86.8739 93.4052 86.8739 94.0841 86.8287 94.6385C86.8852 94.5593 86.9417 94.4801 87.0096 94.4009C87.3714 93.9596 87.654 93.722 88.0836 93.36C93.2165 89.3545 94.7767 81.6603 92.2555 72.7554C88.208 58.4307 74.901 45.5882 62.5777 44.1059C58.3606 43.5968 54.641 44.4906 51.8372 46.6744C51.2266 47.1383 50.6727 47.4439 50.2091 47.6249H50.243Z" fill="white"/>
<path d="M2.40812 82.8707L2.36289 82.6896C-1.98985 67.29 -0.237446 53.4857 7.17917 44.8071C13.013 37.9842 21.9898 34.9066 32.4477 36.1625H32.5381L32.5947 36.2417C38.1006 43.223 44.2057 47.0701 50.1978 47.6246C53.1713 44.4677 57.5692 43.0646 62.6681 43.6756L63.1882 43.7322L62.7812 44.049C58.8807 47.0928 54.6636 48.4053 50.3674 48.0659C50.277 48.1564 50.1978 48.2582 50.1074 48.36C46.4217 52.671 45.5624 59.5505 47.7332 67.2447L47.7784 67.3805L47.6653 67.471C38.225 74.8257 21.3793 80.5737 2.61162 82.8367L2.43073 82.8594L2.40812 82.8707ZM27.9706 36.3209C19.559 36.3209 12.4025 39.3646 7.51835 45.09C0.214786 53.6215 -1.52631 67.2108 2.71337 82.3954C21.2662 80.1325 37.8858 74.475 47.2583 67.2334C45.0989 59.46 46.0034 52.49 49.7569 48.0885C49.7795 48.0659 49.7908 48.0432 49.8134 48.0206C43.844 47.353 37.784 43.4833 32.3007 36.5699C30.8196 36.4001 29.3725 36.3096 27.9593 36.3096L27.9706 36.3209ZM50.7518 47.6698C54.641 47.8961 58.4963 46.7081 62.0689 44.049C57.4788 43.6191 53.5104 44.8977 50.7518 47.6698Z" fill="white"/>
<path d="M19.8417 79.442C16.6196 68.0252 17.9197 57.7852 23.4257 51.347C27.7558 46.2779 34.4149 44.0036 42.182 44.9314L42.1368 45.3614C34.5167 44.4449 27.9932 46.6739 23.7535 51.6299C18.3493 57.9549 17.0718 68.0592 20.26 79.3289L19.8417 79.442Z" fill="white"/>
<path d="M35.3307 74.2259C32.8547 65.4455 33.8609 57.559 38.0893 52.603C41.4245 48.6994 46.546 46.9456 52.5381 47.6584L52.4929 48.0884C46.6591 47.3982 41.6619 49.0954 38.4285 52.8859C34.2905 57.7287 33.3182 65.4682 35.749 74.1128L35.3307 74.2259Z" fill="white"/>
<path d="M38.6659 50.6683C30.7179 50.6683 21.4245 47.3643 11.8711 40.9035L12.1085 40.5527C27.8462 51.1888 42.8151 53.2029 52.1537 45.9273L52.4138 46.2668C48.6263 49.22 43.9457 50.6683 38.6659 50.6683Z" fill="white"/>
<path d="M91.758 93.7331L91.2832 93.4276C87.3035 90.9044 85.1215 87.8041 84.9519 84.4549C84.8841 82.95 85.2233 81.4111 85.9468 79.861C79.3669 66.6564 69.1464 54.9228 57.7049 46.9684C49.3725 50.2271 40.1809 46.5611 32.2442 36.5021L31.9163 36.0947L32.4364 36.1513C40.9158 37.1696 49.6325 40.881 57.7501 46.4819C59.3669 45.8256 60.9497 44.9091 62.4873 43.7097L62.5551 43.6531H62.6455C75.1272 45.158 88.6037 58.1476 92.6851 72.6194L92.7303 72.7552L92.6173 72.8457C89.6665 75.154 87.5749 77.5188 86.4217 79.8497C88.5585 84.1607 90.3109 88.6301 91.5998 93.1787L91.7467 93.7218L91.758 93.7331ZM86.2069 80.3588C85.6077 81.7393 85.325 83.1084 85.3929 84.4435C85.5398 87.4986 87.4844 90.3726 91.0458 92.76C89.8134 88.5396 88.1854 84.387 86.2182 80.3702L86.2069 80.3588ZM58.1911 46.776C69.5195 54.7192 79.6269 66.3283 86.2069 79.3858C87.394 77.1115 89.429 74.8258 92.2555 72.6081C88.1741 58.3739 74.9576 45.6332 62.7021 44.117C61.2436 45.2485 59.7286 46.1424 58.1911 46.7874V46.776ZM32.9225 36.6378C40.5653 46.1085 49.3273 49.6048 57.2866 46.6629C49.4743 41.3109 41.0967 37.7241 32.9225 36.6378Z" fill="white"/>
<path d="M85.6077 87.3063C79.6834 66.3283 60.1809 47.5115 42.1255 45.3504L42.1707 44.9204C60.3844 47.0929 80.0452 66.0568 86.0147 87.1818L85.5964 87.2949L85.6077 87.3063Z" fill="white"/>
<path d="M85.8338 80.2684C81.2888 64.1785 66.3312 49.7406 52.4929 48.0887L52.5381 47.6587C66.5348 49.3333 81.6619 63.907 86.2408 80.1439L85.8225 80.2571L85.8338 80.2684Z" fill="white"/>
<path d="M64.251 53.8591C63.3804 53.8591 62.5664 53.7233 61.8202 53.4517C59.2651 52.5239 57.4675 49.9894 56.6309 46.1423L57.0492 46.0518C57.8519 49.7517 59.5591 52.1731 61.9672 53.0557C65.2007 54.2325 69.6665 52.705 74.8672 48.6542L75.1272 48.9936C70.9893 52.2184 67.2809 53.8704 64.251 53.8704V53.8591Z" fill="white"/>
<path d="M66.0034 140C64.5449 140 63.0412 139.909 61.515 139.728L61.3228 139.706V139.513C61.8315 119.61 67.7897 103.317 77.2413 95.9508L77.3092 95.8943H77.3996C82.329 96.494 86.58 95.1588 89.4629 92.1377C86.6478 89.8747 85.0989 87.2609 84.9632 84.4662C84.771 80.5738 87.3374 76.4438 92.3685 72.5175L92.6173 72.3252L92.7077 72.6307C94.9237 80.4607 94.0192 87.4872 90.243 91.9114C90.1978 91.968 90.1413 92.0245 90.0961 92.0811C90.537 92.4206 91.0231 92.7487 91.5206 93.0768L91.5884 93.1221L91.611 93.2013C95.9525 108.601 94.2001 122.405 86.7835 131.084C81.8089 136.911 74.5393 140 66.0034 140ZM61.7637 139.321C71.9954 140.487 80.7688 137.477 86.4669 130.801C93.7705 122.247 95.5003 108.612 91.2267 93.3937C90.7292 93.0768 90.2543 92.7374 89.8021 92.3979C86.84 95.5209 82.4872 96.9126 77.4449 96.3355C68.1515 103.634 62.3064 119.678 61.7637 139.321ZM92.3798 73.0607C87.6314 76.8286 85.2233 80.7662 85.3928 84.4435C85.5172 87.1138 87.0209 89.6258 89.7569 91.8096C89.8134 91.753 89.8699 91.6851 89.9152 91.6285C93.5443 87.3741 94.4375 80.6191 92.3798 73.0494V73.0607Z" fill="white"/>
<path d="M67.0096 121.896C65.9242 121.896 64.8163 121.828 63.6744 121.692L63.7196 121.262C71.3397 122.167 77.8632 119.938 82.1029 114.994C87.5071 108.669 88.7846 98.5758 85.5964 87.2948L86.0147 87.1816C89.2368 98.5984 87.9367 108.838 82.4307 115.277C78.7337 119.61 73.3409 121.896 67.0096 121.896Z" fill="white"/>
<path d="M71.5997 106.87C70.7631 106.87 69.9039 106.813 69.0333 106.712L69.0785 106.282C74.9123 106.983 79.9095 105.275 83.143 101.484C87.2809 96.6413 88.2532 88.9018 85.8225 80.2572L86.2408 80.144C88.7168 88.9245 87.7105 96.811 83.4822 101.767C80.6331 105.105 76.4726 106.87 71.5997 106.87Z" fill="white"/>
<path d="M92.5042 118.683C83.3125 105.218 83.4934 92.7487 93.0129 85.3374L93.273 85.6769C83.9683 92.9297 83.81 105.184 92.8547 118.445L92.5042 118.683Z" fill="white"/>
<path d="M47.394 67.6747L47.3035 67.3692C45.0989 59.5392 45.992 52.5127 49.7682 48.0885C49.8134 48.0319 49.8699 47.9754 49.9152 47.9188C49.4742 47.5793 48.9881 47.2512 48.4906 46.9231L48.4228 46.8778L48.4002 46.7986C44.0588 31.3989 45.8112 17.5947 53.2278 8.91611C59.0503 2.09319 68.0271 -0.973162 78.485 0.282798L78.6772 0.305428V0.497783C78.1684 20.4008 72.2102 36.6943 62.7586 44.0604L62.6908 44.117H62.6003C57.671 43.5173 53.42 44.8524 50.537 47.8735C53.3521 50.1365 54.901 52.7503 55.0367 55.5451C55.2289 59.4374 52.6625 63.5674 47.6314 67.4937L47.3827 67.686L47.394 67.6747ZM50.2543 48.179C50.1978 48.2356 50.1526 48.3035 50.0961 48.3601C46.4669 52.6145 45.5737 59.3695 47.6314 66.9392C52.3798 63.1713 54.788 59.2337 54.6184 55.5564C54.494 52.886 52.9904 50.3741 50.2543 48.1903V48.179ZM48.7846 46.6062C49.282 46.9231 49.7569 47.2625 50.2091 47.602C53.1712 44.479 57.524 43.0873 62.5664 43.6644C71.8598 36.3662 77.7049 20.3216 78.2476 0.678822C68.0158 -0.497934 59.2425 2.52316 53.5443 9.19899C46.2408 17.7531 44.511 31.3876 48.7846 46.6062Z" fill="white"/>
<path d="M52.4138 46.2668L52.1537 45.9273C61.4924 38.6518 63.6065 23.32 57.8293 4.9106L58.2363 4.78613C64.0701 23.3653 61.8994 38.8781 52.4138 46.2668Z" fill="white"/>
<path d="M92.3799 73.0607L92.2894 72.7552C88.2419 58.4305 74.935 45.588 62.6116 44.1057L62.0916 44.0491L62.4986 43.7323C71.8598 36.4342 77.7501 20.2764 78.2476 0.497868V0.260254L78.485 0.282884C103.053 3.22477 129.599 28.8079 137.648 57.3216L137.716 57.5592L137.467 57.5932C118.768 59.8448 102.001 65.5589 92.6286 72.8683L92.3799 73.0607ZM63.1656 43.7436C75.4098 45.5088 88.4906 58.1702 92.6173 72.3252C102.058 65.095 118.666 59.4488 137.174 57.1858C129.112 29.0116 102.951 3.77921 78.6772 0.735482C78.1345 20.2538 72.3572 36.2645 63.1656 43.7436Z" fill="white"/>
<path d="M75.1159 48.9826L74.8558 48.6432C84.2397 41.3337 94.641 26.9298 102.679 10.1157L103.064 10.2968C95.0028 27.1561 84.5562 41.6166 75.1159 48.9713V48.9826Z" fill="white"/>
<path d="M85.8338 59.3128L85.5737 58.9733C94.9802 51.6412 109.316 40.9712 123.912 30.437L124.16 30.7878C109.576 41.3107 95.2515 51.9807 85.8338 59.3128Z" fill="white"/>
<path d="M112.041 104.12C110.582 104.12 109.079 104.03 107.552 103.849H107.462L107.405 103.769C101.899 96.7995 95.7942 92.9411 89.8022 92.3866C86.8287 95.5435 82.4308 96.9352 77.3318 96.3356L76.8118 96.279L77.2188 95.9622C81.1193 92.9184 85.3477 91.6059 89.6326 91.9454C89.723 91.8548 89.8022 91.753 89.8926 91.6512C93.5783 87.3402 94.4375 80.4607 92.2668 72.7665L92.2216 72.6307L92.3347 72.5402C101.775 65.1855 118.621 59.4375 137.388 57.1745L137.569 57.1519L137.614 57.3329C141.956 72.7326 140.204 86.5368 132.787 95.2154C127.812 101.043 120.543 104.132 112.007 104.132L112.041 104.12ZM107.688 103.43C117.965 104.641 126.772 101.62 132.493 94.9212C139.785 86.3897 141.526 72.8004 137.275 57.6158C118.722 59.8788 102.103 65.5362 92.7304 72.7778C94.8898 80.5512 93.9853 87.5212 90.2318 91.9227C90.2092 91.9454 90.1979 91.968 90.1752 91.9793C96.1447 92.6469 102.205 96.5166 107.688 103.43ZM77.931 95.9622C82.5212 96.3808 86.4896 95.1135 89.2482 92.3414C85.3477 92.1038 81.5037 93.3031 77.931 95.9622Z" fill="white"/>
<path d="M93.273 85.677L93.013 85.3375C102.476 77.9602 119.582 76.8853 138.79 82.4748L138.666 82.8935C119.593 77.3492 102.634 78.3901 93.273 85.6883V85.677Z" fill="white"/>
<path d="M82.9508 134.716L82.8603 134.433C77.0831 117.268 78.4398 102.717 86.4104 94.8644C86.5121 93.9139 86.433 92.7598 86.3878 92.0696C86.3199 91.1078 86.2747 90.8476 85.7885 88.3809C85.6416 87.6455 85.3928 86.6837 85.1667 85.9595C84.6806 84.466 83.9683 82.4632 83.403 80.9923C83.0525 80.0757 82.5099 78.899 82.0689 78.0391C81.9333 77.7675 81.775 77.4733 81.6167 77.1565C81.2662 76.4776 80.9157 75.7761 80.5992 75.199C80.2713 74.5993 79.8417 73.8865 79.4347 73.1963C79.2538 72.8907 79.0729 72.5852 78.9146 72.3137C78.5641 71.7253 76.6874 68.8174 75.0254 66.7015C74.0418 65.4455 71.7467 62.5036 68.2532 59.1204C65.2233 56.1786 62.9282 54.5266 61.074 53.1914C60.9497 53.1009 57.9536 50.951 54.3018 49.3556C52.719 48.6654 51.1023 48.1789 49.9152 48.0091C40.3504 53.7798 25.9581 51.5168 10.7857 41.7067L10.537 41.5483L10.7744 41.3673C16.4386 36.9431 23.9344 35.1554 32.4477 36.1737C57.0152 39.1156 83.5613 64.6987 91.611 93.2124C96.6421 111.056 93.4991 126.501 83.1882 134.546L82.9508 134.727V134.716ZM86.286 95.5886C78.8581 103.373 77.6597 117.438 83.1656 133.992C93.1486 126.014 96.1447 110.83 91.204 93.3029C83.1995 64.9476 56.823 39.5003 32.4025 36.581C24.1266 35.5966 16.8343 37.2939 11.2832 41.503C25.9355 50.9058 39.8191 53.2027 49.1803 47.9299C49.1464 47.9299 49.1238 47.9299 49.0898 47.9299L49.0672 47.5C49.316 47.4773 49.7795 47.3642 50.3109 47.1153C50.8536 46.8663 51.1249 46.674 51.611 46.3119L51.8711 46.6514L51.758 46.4929L51.8824 46.6514C51.4301 47.0021 50.9666 47.3416 50.4805 47.6471C51.645 47.8734 53.0921 48.326 54.494 48.9483C58.1797 50.555 61.2097 52.7388 61.3454 52.8293C63.1995 54.1758 65.5172 55.8391 68.5698 58.7923C72.0859 62.1981 74.3923 65.1626 75.3759 66.4186C77.0378 68.5571 78.9485 71.4877 79.2877 72.0761C79.446 72.3476 79.6269 72.6418 79.8078 72.9586C80.2148 73.6488 80.6444 74.3617 80.9836 74.9727C81.3001 75.5498 81.6619 76.2513 82.0124 76.9415C82.1707 77.247 82.3177 77.5525 82.4646 77.8127C82.9056 78.6727 83.4482 79.8721 83.81 80.7999C84.3866 82.2709 85.0989 84.2849 85.585 85.7898C85.8225 86.514 86.0825 87.5097 86.2182 88.2451C86.7043 90.7458 86.7608 91.0173 86.8287 92.0017C86.8626 92.5901 86.9304 93.5179 86.8852 94.3892C87.2922 94.0158 87.7218 93.6537 88.1515 93.3142L88.4228 93.6537C88.0723 93.9366 87.1452 94.6947 86.693 95.7583L86.286 95.6225C86.286 95.6225 86.286 95.5999 86.286 95.5886Z" fill="white"/>
<path d="M61.7524 139.751L61.515 139.729C36.9474 136.787 10.4013 111.203 2.35159 82.6898L2.28375 82.4522L2.53248 82.4182C21.2323 80.1666 37.9988 74.4525 47.3714 67.143L47.6201 66.9507L47.7106 67.2562C51.758 81.5809 65.065 94.4234 77.3883 95.9057L77.9084 95.9622L77.5014 96.2791C68.1402 103.577 62.2498 119.735 61.7524 139.514V139.751ZM2.83774 82.8143C10.8988 110.989 37.0492 136.221 61.3341 139.276C61.8767 119.758 67.654 103.747 76.8457 96.2677C64.6015 94.5026 51.5206 81.8412 47.394 67.6862C37.9536 74.9164 21.3454 80.5626 2.83774 82.8256V82.8143Z" fill="white"/>
<path d="M63.6744 121.704C45.4607 119.531 25.7999 100.567 19.8304 79.4422L20.2487 79.3291C26.1729 100.307 45.6755 119.124 63.7309 121.285L63.6857 121.715L63.6744 121.704Z" fill="white"/>
<path d="M69.0333 106.712C55.0367 105.037 39.9095 90.4634 35.3307 74.2264L35.749 74.1133C40.2939 90.2032 55.2515 104.641 69.0899 106.293L69.0447 106.723L69.0333 106.712Z" fill="white"/>
<path d="M37.3205 129.884L36.9361 129.703C44.9971 112.833 55.4437 98.3835 64.8841 91.0288L65.1441 91.3683C55.7603 98.6777 45.3589 113.082 37.3205 129.896V129.884Z" fill="white"/>
<path d="M2.40812 82.8707L2.36289 82.6896C-1.98985 67.29 -0.237446 53.4857 7.17917 44.8071C13.013 37.9842 21.9898 34.9066 32.4477 36.1625H32.5381L32.5947 36.2417C38.1006 43.223 44.2057 47.0701 50.1978 47.6246C53.1713 44.4677 57.5692 43.0646 62.6681 43.6756L63.1882 43.7322L62.7812 44.049C58.8807 47.0928 54.6636 48.4053 50.3674 48.0659C50.277 48.1564 50.1978 48.2582 50.1074 48.36C46.4217 52.671 45.5624 59.5505 47.7332 67.2447L47.7784 67.3805L47.6653 67.471C38.225 74.8257 21.3793 80.5737 2.61162 82.8367L2.43073 82.8594L2.40812 82.8707ZM27.9706 36.3209C19.559 36.3209 12.4025 39.3646 7.51835 45.09C0.214786 53.6215 -1.52631 67.2108 2.71337 82.3954C21.2662 80.1325 37.8858 74.475 47.2583 67.2334C45.0989 59.46 46.0034 52.49 49.7569 48.0885C49.7795 48.0659 49.7908 48.0432 49.8134 48.0206C43.844 47.353 37.784 43.4833 32.3007 36.5699C30.8196 36.4001 29.3725 36.3096 27.9593 36.3096L27.9706 36.3209ZM50.7518 47.6698C54.641 47.8961 58.4963 46.7081 62.0689 44.049C57.4788 43.6191 53.5104 44.8977 50.7518 47.6698Z" fill="white"/>
<path d="M19.8417 79.442C16.6196 68.0252 17.9197 57.7852 23.4257 51.347C27.7558 46.2779 34.4149 44.0036 42.182 44.9314L42.1368 45.3614C34.5167 44.4449 27.9932 46.6739 23.7535 51.6299C18.3493 57.9549 17.0718 68.0592 20.26 79.3289L19.8417 79.442Z" fill="white"/>
<path d="M35.3307 74.2259C32.8547 65.4455 33.8609 57.559 38.0893 52.603C41.4245 48.6994 46.546 46.9456 52.5381 47.6584L52.4929 48.0884C46.6591 47.3982 41.6619 49.0954 38.4285 52.8859C34.2905 57.7287 33.3182 65.4682 35.749 74.1128L35.3307 74.2259Z" fill="white"/>
<path d="M24.104 61.0783C17.1396 61.0783 9.3612 59.9128 1.22101 57.5367L1.34537 57.118C20.407 62.6624 37.377 61.6214 46.7383 54.3232L46.9983 54.6627C41.5489 58.9058 33.567 61.067 24.104 61.067V61.0783Z" fill="white"/>
<path d="M108.072 103.905L107.552 103.849C99.0729 102.83 90.3561 99.1192 82.2385 93.5183C80.6218 94.1745 79.039 95.0911 77.5014 96.2904L77.4335 96.347H77.3431C64.8615 94.8421 51.3849 81.8526 47.3035 67.3807L47.2583 67.2449L47.3714 67.1544C50.3222 64.8462 52.4138 62.4813 53.5556 60.1505C51.4188 55.8395 49.6664 51.3701 48.3776 46.8214L48.2306 46.2783L48.7054 46.5838C52.6851 49.1071 54.8671 52.2074 55.0367 55.5566C55.1045 57.0615 54.7654 58.6003 54.0418 60.1505C60.6218 73.355 70.8422 85.0886 82.2837 93.043C90.6161 89.7957 99.8078 93.4504 107.744 103.509L108.072 103.917V103.905ZM82.7247 93.3259C90.537 98.6779 98.9146 102.265 107.089 103.351C99.446 93.8917 90.6953 90.384 82.7247 93.3259ZM47.7671 67.392C51.8485 81.6263 65.065 94.3669 77.3205 95.8831C78.7789 94.7516 80.2939 93.8577 81.8315 93.2128C70.5031 85.281 60.3957 73.6605 53.8157 60.6031C52.6286 62.8774 50.5935 65.163 47.7671 67.3807V67.392ZM48.9768 47.2401C50.2091 51.4606 51.8372 55.6132 53.8157 59.63C54.4149 58.2495 54.6975 56.8804 54.6297 55.5453C54.4827 52.4902 52.5381 49.6162 48.9768 47.2288V47.2401Z" fill="white"/>
<path d="M82.9621 93.9485C82.1594 90.2485 80.4635 87.8271 78.0441 86.9445C74.8106 85.7677 70.3561 87.2953 65.1441 91.346L64.8841 91.0066C70.2091 86.854 74.8219 85.3151 78.1911 86.5372C80.7462 87.465 82.5438 89.9995 83.3804 93.8466L82.9621 93.9371V93.9485Z" fill="white"/>
<path d="M54.4375 81.0268L54.1775 80.6873C60.9836 75.3806 63.0526 73.5023 63.6744 72.8348C63.3917 72.9592 62.9282 73.2081 62.1368 73.6834L61.922 73.31C63.9231 72.1106 64.1605 72.1559 64.3188 72.3822C64.4997 72.6424 64.7484 73.0045 54.4601 81.0268H54.4375Z" fill="white"/>
<path d="M47.394 67.6747L47.3035 67.3692C45.0989 59.5392 45.992 52.5127 49.7682 48.0885C49.8134 48.0319 49.8699 47.9754 49.9152 47.9188C49.4742 47.5793 48.9881 47.2512 48.4906 46.9231L48.4228 46.8778L48.4002 46.7986C44.0588 31.3989 45.8112 17.5947 53.2278 8.91611C59.0503 2.09319 68.0271 -0.973162 78.485 0.282798L78.6772 0.305428V0.497783C78.1684 20.4008 72.2102 36.6943 62.7586 44.0604L62.6908 44.117H62.6003C57.671 43.5173 53.42 44.8524 50.537 47.8735C53.3521 50.1365 54.901 52.7503 55.0367 55.5451C55.2289 59.4374 52.6625 63.5674 47.6314 67.4937L47.3827 67.686L47.394 67.6747ZM50.2543 48.179C50.1978 48.2356 50.1526 48.3035 50.0961 48.3601C46.4669 52.6145 45.5737 59.3695 47.6314 66.9392C52.3798 63.1713 54.788 59.2337 54.6184 55.5564C54.494 52.886 52.9904 50.3741 50.2543 48.1903V48.179ZM48.7846 46.6062C49.282 46.9231 49.7569 47.2625 50.2091 47.602C53.1712 44.479 57.524 43.0873 62.5664 43.6644C71.8598 36.3662 77.7049 20.3216 78.2476 0.678822C68.0158 -0.497934 59.2425 2.52316 53.5443 9.19899C46.2408 17.7531 44.511 31.3876 48.7846 46.6062Z" fill="white"/>
<path d="M46.9983 54.6738L46.7382 54.3344C56.0429 47.0815 56.2012 34.8274 47.1565 21.5662L47.507 21.3286C56.6987 34.7934 56.5178 47.2625 46.9983 54.6738Z" fill="white"/>
<path d="M61.7524 139.751L61.515 139.728C36.9474 136.787 10.4014 111.203 2.35161 82.6897C-2.69079 64.846 0.463533 49.4011 10.7744 41.3561L10.8988 41.2656L11.0232 41.3448C27.1001 51.7433 42.2612 53.5989 51.5998 46.3234L51.8598 46.6629C46.7496 50.6457 45.1894 58.3399 47.7106 67.2448C51.7581 81.5695 65.065 94.412 77.3884 95.8942L77.9084 95.9508L77.5014 96.2676C68.1402 103.566 62.2499 119.724 61.7524 139.502V139.74V139.751ZM10.9214 41.7974C0.847931 49.7405 -2.20464 64.9705 2.76992 82.5765C10.7518 110.841 36.9813 136.221 61.3341 139.276C61.8768 119.757 67.654 103.747 76.8457 96.2676C64.511 94.4912 51.3397 81.66 47.3036 67.3805C45.0763 59.4827 46.0034 52.5127 49.7343 48.1338C40.1922 53.746 25.9469 51.483 10.9214 41.8087V41.7974Z" fill="white"/>
<path d="M66.0034 140C64.5449 140 63.0412 139.909 61.515 139.728L61.3228 139.706V139.513C61.8315 119.61 67.7897 103.317 77.2413 95.9508L77.3092 95.8943H77.3996C82.329 96.494 86.58 95.1588 89.4629 92.1377C86.6478 89.8747 85.0989 87.2609 84.9632 84.4662C84.771 80.5738 87.3374 76.4438 92.3685 72.5175L92.6173 72.3252L92.7077 72.6307C94.9237 80.4607 94.0192 87.4872 90.243 91.9114C90.1978 91.968 90.1413 92.0245 90.0961 92.0811C90.537 92.4206 91.0231 92.7487 91.5206 93.0768L91.5884 93.1221L91.611 93.2013C95.9525 108.601 94.2001 122.405 86.7835 131.084C81.8089 136.911 74.5393 140 66.0034 140ZM61.7637 139.321C71.9954 140.487 80.7688 137.477 86.4669 130.801C93.7705 122.247 95.5003 108.612 91.2267 93.3937C90.7292 93.0768 90.2543 92.7374 89.8021 92.3979C86.84 95.5209 82.4872 96.9126 77.4449 96.3355C68.1515 103.634 62.3064 119.678 61.7637 139.321ZM92.3798 73.0607C87.6314 76.8286 85.2233 80.7662 85.3928 84.4435C85.5172 87.1138 87.0209 89.6258 89.7569 91.8096C89.8134 91.753 89.8699 91.6851 89.9152 91.6285C93.5443 87.3741 94.4375 80.6191 92.3798 73.0494V73.0607Z" fill="white"/>
<path d="M67.0096 121.896C65.9242 121.896 64.8163 121.828 63.6744 121.692L63.7196 121.262C71.3397 122.167 77.8632 119.938 82.1029 114.994C87.5071 108.669 88.7846 98.5758 85.5964 87.2948L86.0147 87.1816C89.2368 98.5984 87.9367 108.838 82.4307 115.277C78.7337 119.61 73.3409 121.896 67.0096 121.896Z" fill="white"/>
<path d="M71.5997 106.87C70.7631 106.87 69.9039 106.813 69.0333 106.712L69.0785 106.282C74.9123 106.983 79.9095 105.275 83.143 101.484C87.2809 96.6413 88.2532 88.9018 85.8225 80.2572L86.2408 80.144C88.7168 88.9245 87.7105 96.811 83.4822 101.767C80.6331 105.105 76.4726 106.87 71.5997 106.87Z" fill="white"/>
<path d="M81.7637 135.214C75.9186 116.634 78.1006 101.122 87.5862 93.7329L87.8462 94.0724C78.5076 101.348 76.3934 116.68 82.1707 135.089L81.7637 135.214Z" fill="white"/>
<path d="M112.041 104.12C110.582 104.12 109.079 104.03 107.552 103.849H107.462L107.405 103.769C101.899 96.7995 95.7942 92.9411 89.8021 92.3866C86.8287 95.5435 82.4307 96.9352 77.3318 96.3356L76.8117 96.279L77.2187 95.9622C81.1192 92.9184 85.3476 91.6059 89.6325 91.9454C89.723 91.8548 89.8021 91.753 89.8925 91.6512C93.5782 87.3402 94.4375 80.4607 92.2668 72.7665L92.2215 72.6307L92.3346 72.5402C101.775 65.1855 118.621 59.4375 137.388 57.1745L137.569 57.1519L137.614 57.3329C141.956 72.7326 140.203 86.5368 132.787 95.2154C127.812 101.043 120.543 104.132 112.007 104.132L112.041 104.12ZM107.688 103.43C117.965 104.641 126.772 101.62 132.493 94.9212C139.785 86.3897 141.526 72.8004 137.275 57.6158C118.722 59.8788 102.103 65.5362 92.7303 72.7778C94.8897 80.5512 93.9852 87.5212 90.2317 91.9227C90.2091 91.9454 90.1978 91.968 90.1752 91.9793C96.1447 92.6469 102.205 96.5166 107.688 103.43ZM77.931 95.9622C82.5211 96.3808 86.4895 95.1135 89.2481 92.3414C85.3476 92.1038 81.5036 93.3031 77.931 95.9622Z" fill="white"/>
<path d="M127.891 99.447C112.154 88.8109 97.1848 86.7968 87.8462 94.0724L87.5862 93.7329C97.0718 86.3329 112.233 88.3357 128.129 99.0849L127.891 99.4357V99.447Z" fill="white"/>
<path d="M66.0486 140C64.5788 140 63.0638 139.909 61.515 139.728L61.3228 139.706V139.513C61.8315 119.61 67.7897 103.317 77.2413 95.9507L77.3092 95.8941H77.3996C81.628 96.4033 85.3363 95.5207 88.1402 93.3369L88.4002 93.6764C79.0616 100.952 77.1396 116.137 83.256 134.297L83.3013 134.444L83.1769 134.535C78.5415 138.155 72.6738 140.011 66.0373 140.011L66.0486 140ZM61.7637 139.321C70.0169 140.26 77.2866 138.529 82.8038 134.274C77.1283 117.302 78.4285 102.898 86.2295 95.0228C83.7196 96.2562 80.7235 96.7088 77.4449 96.3241C68.1515 103.622 62.3064 119.667 61.7637 139.31V139.321Z" fill="white"/>
<path d="M61.7524 139.751L61.515 139.729C36.9474 136.787 10.4013 111.203 2.35159 82.6898L2.28375 82.4522L2.53248 82.4182C21.2323 80.1666 37.9988 74.4525 47.3714 67.143L47.6201 66.9507L47.7106 67.2562C51.758 81.5809 65.065 94.4234 77.3883 95.9057L77.9084 95.9622L77.5014 96.2791C68.1402 103.577 62.2498 119.735 61.7524 139.514V139.751ZM2.83774 82.8143C10.8988 110.989 37.0492 136.221 61.3341 139.276C61.8767 119.758 67.654 103.747 76.8457 96.2677C64.6015 94.5026 51.5206 81.8412 47.394 67.6862C37.9536 74.9164 21.3454 80.5626 2.83774 82.8256V82.8143Z" fill="white"/>
<path d="M37.3205 129.884L36.9361 129.703C44.9971 112.833 55.4437 98.3835 64.8841 91.0288L65.1441 91.3683C55.7603 98.6777 45.3589 113.082 37.3205 129.896V129.884Z" fill="white"/>
<path d="M2.40812 82.8707L2.36289 82.6896C-1.98985 67.29 -0.237446 53.4857 7.17917 44.8071C13.013 37.9842 21.9898 34.9066 32.4477 36.1625H32.5381L32.5947 36.2417C38.1006 43.223 44.2057 47.0701 50.1978 47.6246C53.1713 44.4677 57.5692 43.0646 62.6681 43.6756L63.1882 43.7322L62.7812 44.049C58.8807 47.0928 54.6636 48.4053 50.3674 48.0659C50.277 48.1564 50.1978 48.2582 50.1074 48.36C46.4217 52.671 45.5624 59.5505 47.7332 67.2447L47.7784 67.3805L47.6653 67.471C38.225 74.8257 21.3793 80.5737 2.61162 82.8367L2.43073 82.8594L2.40812 82.8707ZM27.9706 36.3209C19.559 36.3209 12.4025 39.3646 7.51835 45.09C0.214786 53.6215 -1.52631 67.2108 2.71337 82.3954C21.2662 80.1325 37.8858 74.475 47.2583 67.2334C45.0989 59.46 46.0034 52.49 49.7569 48.0885C49.7795 48.0659 49.7908 48.0432 49.8134 48.0206C43.844 47.353 37.784 43.4833 32.3007 36.5699C30.8196 36.4001 29.3725 36.3096 27.9593 36.3096L27.9706 36.3209ZM50.7518 47.6698C54.641 47.8961 58.4963 46.7081 62.0689 44.049C57.4788 43.6191 53.5104 44.8977 50.7518 47.6698Z" fill="white"/>
<path d="M24.104 61.0783C17.1396 61.0783 9.3612 59.9128 1.22101 57.5367L1.34537 57.118C20.407 62.6624 37.377 61.6214 46.7383 54.3232L46.9983 54.6627C41.5489 58.9058 33.567 61.067 24.104 61.067V61.0783Z" fill="white"/>
<path d="M108.072 103.905L107.552 103.849C99.0729 102.83 90.3561 99.1192 82.2385 93.5183C80.6218 94.1745 79.039 95.0911 77.5014 96.2904L77.4335 96.347H77.3431C64.8615 94.8421 51.3849 81.8526 47.3035 67.3807L47.2583 67.2449L47.3714 67.1544C50.3222 64.8462 52.4138 62.4813 53.5556 60.1505C51.4188 55.8395 49.6664 51.3701 48.3776 46.8214L48.2306 46.2783L48.7054 46.5838C52.6851 49.1071 54.8671 52.2074 55.0367 55.5566C55.1045 57.0615 54.7654 58.6003 54.0418 60.1505C60.6218 73.355 70.8422 85.0886 82.2837 93.043C90.6161 89.7957 99.8078 93.4504 107.744 103.509L108.072 103.917V103.905ZM82.7247 93.3259C90.537 98.6779 98.9146 102.265 107.089 103.351C99.446 93.8917 90.6953 90.384 82.7247 93.3259ZM47.7671 67.392C51.8485 81.6263 65.065 94.3669 77.3205 95.8831C78.7789 94.7516 80.2939 93.8577 81.8315 93.2128C70.5031 85.281 60.3957 73.6605 53.8157 60.6031C52.6286 62.8774 50.5935 65.163 47.7671 67.3807V67.392ZM48.9768 47.2401C50.2091 51.4606 51.8372 55.6132 53.8157 59.63C54.4149 58.2495 54.6975 56.8804 54.6297 55.5453C54.4827 52.4902 52.5381 49.6162 48.9768 47.2288V47.2401Z" fill="white"/>
<path d="M87.4618 92.3416C73.4652 90.667 58.338 76.0933 53.7592 59.8563L54.1775 59.7432C58.7224 75.833 73.68 90.2709 87.5183 91.9229L87.4731 92.3529L87.4618 92.3416Z" fill="white"/>
<path d="M97.8293 95.0796C79.6156 92.9071 59.9548 73.9433 53.9853 52.8182L54.4036 52.7051C60.3279 73.683 79.8304 92.4998 97.8858 94.6609L97.8406 95.0909L97.8293 95.0796Z" fill="white"/>
<path d="M82.9621 93.9485C82.1594 90.2485 80.4635 87.8271 78.0441 86.9445C74.8106 85.7677 70.3561 87.2953 65.1441 91.346L64.8841 91.0066C70.2091 86.854 74.8219 85.3151 78.1911 86.5372C80.7462 87.465 82.5438 89.9995 83.3804 93.8466L82.9621 93.9371V93.9485Z" fill="white"/>
<path d="M47.394 67.6747L47.3035 67.3692C45.0989 59.5392 45.992 52.5127 49.7682 48.0885C49.8134 48.0319 49.8699 47.9754 49.9152 47.9188C49.4742 47.5793 48.9881 47.2512 48.4906 46.9231L48.4228 46.8778L48.4002 46.7986C44.0588 31.3989 45.8112 17.5947 53.2278 8.91611C59.0503 2.09319 68.0271 -0.973162 78.485 0.282798L78.6772 0.305428V0.497783C78.1684 20.4008 72.2102 36.6943 62.7586 44.0604L62.6908 44.117H62.6003C57.671 43.5173 53.42 44.8524 50.537 47.8735C53.3521 50.1365 54.901 52.7503 55.0367 55.5451C55.2289 59.4374 52.6625 63.5674 47.6314 67.4937L47.3827 67.686L47.394 67.6747ZM50.2543 48.179C50.1978 48.2356 50.1526 48.3035 50.0961 48.3601C46.4669 52.6145 45.5737 59.3695 47.6314 66.9392C52.3798 63.1713 54.788 59.2337 54.6184 55.5564C54.494 52.886 52.9904 50.3741 50.2543 48.1903V48.179ZM48.7846 46.6062C49.282 46.9231 49.7569 47.2625 50.2091 47.602C53.1712 44.479 57.524 43.0873 62.5664 43.6644C71.8598 36.3662 77.7049 20.3216 78.2476 0.678822C68.0158 -0.497934 59.2425 2.52316 53.5443 9.19899C46.2408 17.7531 44.511 31.3876 48.7846 46.6062Z" fill="white"/>
<path d="M53.7591 59.8563C51.2832 51.0759 52.2894 43.1894 56.5178 38.2334C59.853 34.3298 64.9858 32.5759 70.9666 33.2888L70.9214 33.7187C65.0989 33.0172 60.0904 34.7258 56.8456 38.5163C52.7077 43.3591 51.7354 51.0985 54.1774 59.7431L53.7591 59.8563Z" fill="white"/>
<path d="M53.9853 52.8182C50.7631 41.4014 52.0633 31.1614 57.5692 24.7232C61.8993 19.6541 68.5585 17.3684 76.3256 18.3076L76.2804 18.7376C68.6602 17.821 62.1368 20.0501 57.8971 25.006C52.4929 31.3311 51.2153 41.4354 54.4036 52.7051L53.9853 52.8182Z" fill="white"/>
<path d="M46.9983 54.6738L46.7382 54.3344C56.0429 47.0815 56.2012 34.8274 47.1565 21.5662L47.507 21.3286C56.6987 34.7934 56.5178 47.2625 46.9983 54.6738Z" fill="white"/>
<path d="M77.4336 96.3358H77.3431C64.8615 94.8309 51.385 81.8413 47.3036 67.3695C44.7371 58.2949 46.3539 50.431 51.6111 46.335C51.9503 46.0521 52.8773 45.3053 53.3409 44.2417L53.7479 44.3888C53.4652 45.4071 53.5783 47.0591 53.6348 47.953C53.7027 48.9148 53.7366 49.1298 54.234 51.653C54.3697 52.3772 54.6297 53.3389 54.8558 54.0744C55.342 55.568 56.0543 57.5707 56.6196 59.0417C56.97 59.9355 57.5014 61.1236 57.9536 61.9949C58.0893 62.2664 58.2476 62.5606 58.4059 62.8661C58.7564 63.545 59.1068 64.2465 59.4234 64.8236C59.7513 65.4233 60.1809 66.1361 60.5992 66.8264C60.7801 67.1319 60.961 67.4374 61.1193 67.7089C61.1306 67.7316 62.6003 70.1869 65.0085 73.3211C65.9356 74.5319 66.6478 75.4144 67.1905 76.0254C68.5359 77.5303 70.3787 79.4991 71.7694 80.9022C73.3409 82.4863 76.4613 85.0095 76.7778 85.2471C78.0215 86.1749 79.7513 87.363 81.0627 88.2229C81.7185 88.6529 82.6343 89.1734 83.3465 89.5355C85.0989 90.418 85.6868 90.7122 87.0322 91.1988C87.5975 91.4025 88.3211 91.6287 88.8298 91.7645C89.2595 91.8777 89.8587 91.9795 90.2883 92.0474L90.2318 92.4774C85.7547 91.9456 81.4697 93.2355 77.5127 96.3131L77.4449 96.3697L77.4336 96.3358ZM53.1487 45.3845C52.6738 46.0182 52.1198 46.4707 51.8711 46.6744C46.7496 50.6573 45.2007 58.3628 47.7106 67.2563C51.7467 81.5471 65.0085 94.367 77.3092 95.8945C80.6218 93.3373 84.1492 92.0021 87.8462 91.9116C87.5184 91.8098 87.1792 91.6966 86.8739 91.5835C85.5059 91.0856 84.9067 90.7914 83.143 89.8976C82.4194 89.5355 81.4811 89.0037 80.814 88.5624C79.4912 87.7025 77.7614 86.4918 76.5065 85.5639C76.1899 85.3263 73.0243 82.7805 71.4415 81.185C70.0396 79.7707 68.1967 77.8019 66.84 76.2857C66.286 75.6633 65.5625 74.7695 64.6354 73.5588C62.2272 70.4245 60.7349 67.9239 60.7236 67.9013C60.5653 67.6297 60.3844 67.3355 60.2035 67.03C59.7852 66.3398 59.3669 65.6157 59.0277 65.0047C58.7111 64.4276 58.3493 63.7261 57.9989 63.0358C57.8406 62.7303 57.6936 62.4248 57.5466 62.1646C57.0944 61.2933 56.5517 60.0826 56.2012 59.1774C55.6246 57.7065 54.9124 55.6924 54.4262 54.1875C54.1888 53.4521 53.9288 52.4564 53.7931 51.7322C53.2956 49.175 53.2504 48.96 53.1826 47.9756C53.1374 47.3307 53.0695 46.3123 53.1374 45.3845H53.1487Z" fill="white"/>
<path d="M61.7524 139.751L61.515 139.729C36.9474 136.787 10.4013 111.203 2.35159 82.6898L2.28375 82.4522L2.53248 82.4182C21.2323 80.1666 37.9988 74.4525 47.3714 67.143L47.6201 66.9507L47.7106 67.2562C51.758 81.5809 65.065 94.4234 77.3883 95.9057L77.9084 95.9622L77.5014 96.2791C68.1402 103.577 62.2498 119.735 61.7524 139.514V139.751ZM2.83774 82.8143C10.8988 110.989 37.0492 136.221 61.3341 139.276C61.8767 119.758 67.654 103.747 76.8457 96.2677C64.6015 94.5026 51.5206 81.8412 47.394 67.6862C37.9536 74.9164 21.3454 80.5626 2.83774 82.8256V82.8143Z" fill="white"/>
<path d="M37.3205 129.884L36.9361 129.703C44.9971 112.833 55.4437 98.3835 64.8841 91.0288L65.1441 91.3683C55.7603 98.6777 45.3589 113.082 37.3205 129.896V129.884Z" fill="white"/>
<path d="M16.0995 109.563L15.8508 109.212C30.424 98.7004 44.7484 88.0304 54.1775 80.687L54.4375 81.0265C45.0085 88.3699 30.684 99.0399 16.0995 109.563Z" fill="white"/>
<path d="M2.40812 82.8707L2.36289 82.6896C-1.98985 67.29 -0.237446 53.4857 7.17917 44.8071C13.013 37.9842 21.9898 34.9066 32.4477 36.1625H32.5381L32.5947 36.2417C38.1006 43.223 44.2057 47.0701 50.1978 47.6246C53.1713 44.4677 57.5692 43.0646 62.6681 43.6756L63.1882 43.7322L62.7812 44.049C58.8807 47.0928 54.6636 48.4053 50.3674 48.0659C50.277 48.1564 50.1978 48.2582 50.1074 48.36C46.4217 52.671 45.5624 59.5505 47.7332 67.2447L47.7784 67.3805L47.6653 67.471C38.225 74.8257 21.3793 80.5737 2.61162 82.8367L2.43073 82.8594L2.40812 82.8707ZM27.9706 36.3209C19.559 36.3209 12.4025 39.3646 7.51835 45.09C0.214786 53.6215 -1.52631 67.2108 2.71337 82.3954C21.2662 80.1325 37.8858 74.475 47.2583 67.2334C45.0989 59.46 46.0034 52.49 49.7569 48.0885C49.7795 48.0659 49.7908 48.0432 49.8134 48.0206C43.844 47.353 37.784 43.4833 32.3007 36.5699C30.8196 36.4001 29.3725 36.3096 27.9593 36.3096L27.9706 36.3209ZM50.7518 47.6698C54.641 47.8961 58.4963 46.7081 62.0689 44.049C57.4788 43.6191 53.5104 44.8977 50.7518 47.6698Z" fill="white"/>
<path d="M24.104 61.0783C17.1396 61.0783 9.3612 59.9128 1.22101 57.5367L1.34537 57.118C20.407 62.6624 37.377 61.6214 46.7383 54.3232L46.9983 54.6627C41.5489 58.9058 33.567 61.067 24.104 61.067V61.0783Z" fill="white"/>
<path d="M108.072 103.905L107.552 103.849C99.0729 102.83 90.3561 99.1192 82.2385 93.5183C80.6218 94.1745 79.039 95.0911 77.5014 96.2904L77.4335 96.347H77.3431C64.8615 94.8421 51.3849 81.8526 47.3035 67.3807L47.2583 67.2449L47.3714 67.1544C50.3222 64.8462 52.4138 62.4813 53.5556 60.1505C51.4188 55.8395 49.6664 51.3701 48.3776 46.8214L48.2306 46.2783L48.7054 46.5838C52.6851 49.1071 54.8671 52.2074 55.0367 55.5566C55.1045 57.0615 54.7654 58.6003 54.0418 60.1505C60.6218 73.355 70.8422 85.0886 82.2837 93.043C90.6161 89.7957 99.8078 93.4504 107.744 103.509L108.072 103.917V103.905ZM82.7247 93.3259C90.537 98.6779 98.9146 102.265 107.089 103.351C99.446 93.8917 90.6953 90.384 82.7247 93.3259ZM47.7671 67.392C51.8485 81.6263 65.065 94.3669 77.3205 95.8831C78.7789 94.7516 80.2939 93.8577 81.8315 93.2128C70.5031 85.281 60.3957 73.6605 53.8157 60.6031C52.6286 62.8774 50.5935 65.163 47.7671 67.3807V67.392ZM48.9768 47.2401C50.2091 51.4606 51.8372 55.6132 53.8157 59.63C54.4149 58.2495 54.6975 56.8804 54.6297 55.5453C54.4827 52.4902 52.5381 49.6162 48.9768 47.2288V47.2401Z" fill="white"/>
<path d="M87.4618 92.3416C73.4652 90.667 58.338 76.0933 53.7592 59.8563L54.1775 59.7432C58.7224 75.833 73.68 90.2709 87.5183 91.9229L87.4731 92.3529L87.4618 92.3416Z" fill="white"/>
<path d="M97.8293 95.0796C79.6156 92.9071 59.9548 73.9433 53.9853 52.8182L54.4036 52.7051C60.3279 73.683 79.8304 92.4998 97.8858 94.6609L97.8406 95.0909L97.8293 95.0796Z" fill="white"/>
<path d="M82.9621 93.9485C82.1594 90.2485 80.4635 87.8271 78.0441 86.9445C74.8106 85.7677 70.3561 87.2953 65.1441 91.346L64.8841 91.0066C70.2091 86.854 74.8219 85.3151 78.1911 86.5372C80.7462 87.465 82.5438 89.9995 83.3804 93.8466L82.9621 93.9371V93.9485Z" fill="white"/>
<path d="M47.394 67.6747L47.3035 67.3692C45.0989 59.5392 45.992 52.5127 49.7682 48.0885C49.8134 48.0319 49.8699 47.9754 49.9152 47.9188C49.4742 47.5793 48.9881 47.2512 48.4906 46.9231L48.4228 46.8778L48.4002 46.7986C44.0588 31.3989 45.8112 17.5947 53.2278 8.91611C59.0503 2.09319 68.0271 -0.973162 78.485 0.282798L78.6772 0.305428V0.497783C78.1684 20.4008 72.2102 36.6943 62.7586 44.0604L62.6908 44.117H62.6003C57.671 43.5173 53.42 44.8524 50.537 47.8735C53.3521 50.1365 54.901 52.7503 55.0367 55.5451C55.2289 59.4374 52.6625 63.5674 47.6314 67.4937L47.3827 67.686L47.394 67.6747ZM50.2543 48.179C50.1978 48.2356 50.1526 48.3035 50.0961 48.3601C46.4669 52.6145 45.5737 59.3695 47.6314 66.9392C52.3798 63.1713 54.788 59.2337 54.6184 55.5564C54.494 52.886 52.9904 50.3741 50.2543 48.1903V48.179ZM48.7846 46.6062C49.282 46.9231 49.7569 47.2625 50.2091 47.602C53.1712 44.479 57.524 43.0873 62.5664 43.6644C71.8598 36.3662 77.7049 20.3216 78.2476 0.678822C68.0158 -0.497934 59.2425 2.52316 53.5443 9.19899C46.2408 17.7531 44.511 31.3876 48.7846 46.6062Z" fill="white"/>
<path d="M53.7591 59.8563C51.2832 51.0759 52.2894 43.1894 56.5178 38.2334C59.853 34.3298 64.9858 32.5759 70.9666 33.2888L70.9214 33.7187C65.0989 33.0172 60.0904 34.7258 56.8456 38.5163C52.7077 43.3591 51.7354 51.0985 54.1774 59.7431L53.7591 59.8563Z" fill="white"/>
<path d="M53.9853 52.8182C50.7631 41.4014 52.0633 31.1614 57.5692 24.7232C61.8993 19.6541 68.5585 17.3684 76.3256 18.3076L76.2804 18.7376C68.6602 17.821 62.1368 20.0501 57.8971 25.006C52.4929 31.3311 51.2153 41.4354 54.4036 52.7051L53.9853 52.8182Z" fill="white"/>
<path d="M46.9983 54.6738L46.7382 54.3344C56.0429 47.0815 56.2012 34.8274 47.1565 21.5662L47.507 21.3286C56.6987 34.7934 56.5178 47.2625 46.9983 54.6738Z" fill="white"/>
<path d="M108.072 103.905L107.552 103.849C82.9847 100.907 56.4386 75.3237 48.3889 46.81C43.3465 28.9663 46.5008 13.5101 56.8117 5.47645L57.0492 5.29541L57.1396 5.57828C62.9169 22.7431 61.5602 37.2941 53.5896 45.1467C53.4087 46.9458 53.7026 50.1932 54.7202 53.6555C55.1724 55.2057 55.896 57.2198 56.4273 58.5889C56.71 59.313 57.117 60.2069 57.4788 60.999C57.6031 61.2705 57.7275 61.5308 57.8406 61.7797C58.632 63.5222 59.4347 64.8913 61.0514 67.6295C61.0627 67.6522 62.5551 70.1528 64.9632 73.287C65.879 74.4751 66.9078 75.8216 69.3725 78.4806C71.0458 80.2796 73.2504 82.3277 74.0192 82.9726C76.416 84.9867 77.6145 85.9937 80.7575 88.0191C81.4471 88.4717 82.2838 88.9582 82.8604 89.2524C84.1944 89.9389 85.3891 90.5046 86.4443 90.9497C87.1226 91.2325 88.5359 91.753 90.2544 92.0019C96.3256 92.7261 102.363 96.6976 107.722 103.475L108.05 103.883L108.072 103.905ZM56.8457 6.00825C46.8626 13.9853 43.8553 29.17 48.8072 46.6968C56.7552 74.8485 82.8151 100.137 107.077 103.362C101.877 96.924 96.0542 93.1561 90.2204 92.4545C88.4454 92.1943 86.9983 91.6625 86.2973 91.3683C85.227 90.9232 84.0211 90.3537 82.6795 89.6597C81.9559 89.2864 81.074 88.7432 80.5314 88.4038C77.377 86.3671 76.1673 85.3487 73.7592 83.3234C72.9904 82.6784 70.7631 80.6078 69.0786 78.7974C66.6026 76.1271 65.5624 74.7693 64.6467 73.5699C62.2046 70.3904 60.7122 67.8898 60.7009 67.8671C59.0729 65.1176 58.2589 63.7372 57.4675 61.972C57.3544 61.7344 57.2414 61.4629 57.1057 61.1913C56.7326 60.3993 56.3256 59.4941 56.0429 58.7586C55.5116 57.3782 54.788 55.3415 54.3245 53.7913C53.3748 50.5779 53.0469 47.5115 53.1373 45.5993C52.7303 45.9727 52.3007 46.3348 51.8598 46.6855L51.5884 46.3461C52.0181 45.984 52.2894 45.7577 52.6286 45.3504C53.0695 44.8073 53.2504 44.4339 53.3182 44.2528L53.7252 44.3886C53.7252 44.3886 53.7252 44.4112 53.7252 44.4225C61.1532 36.6378 62.3516 22.5734 56.8457 6.00825Z" fill="white"/>
<path d="M2.40812 82.8707L2.36289 82.6896C-1.98985 67.29 -0.237446 53.4857 7.17917 44.8071C13.013 37.9842 21.9898 34.9066 32.4477 36.1625H32.5381L32.5947 36.2417C38.1006 43.223 44.2057 47.0701 50.1978 47.6246C53.1713 44.4677 57.5692 43.0646 62.6681 43.6756L63.1882 43.7322L62.7812 44.049C58.8807 47.0928 54.6636 48.4053 50.3674 48.0659C50.277 48.1564 50.1978 48.2582 50.1074 48.36C46.4217 52.671 45.5624 59.5505 47.7332 67.2447L47.7784 67.3805L47.6653 67.471C38.225 74.8257 21.3793 80.5737 2.61162 82.8367L2.43073 82.8594L2.40812 82.8707ZM27.9706 36.3209C19.559 36.3209 12.4025 39.3646 7.51835 45.09C0.214786 53.6215 -1.52631 67.2108 2.71337 82.3954C21.2662 80.1325 37.8858 74.475 47.2583 67.2334C45.0989 59.46 46.0034 52.49 49.7569 48.0885C49.7795 48.0659 49.7908 48.0432 49.8134 48.0206C43.844 47.353 37.784 43.4833 32.3007 36.5699C30.8196 36.4001 29.3725 36.3096 27.9593 36.3096L27.9706 36.3209ZM50.7518 47.6698C54.641 47.8961 58.4963 46.7081 62.0689 44.049C57.4788 43.6191 53.5104 44.8977 50.7518 47.6698Z" fill="white"/>
<path d="M38.6659 50.6683C30.7179 50.6683 21.4245 47.3643 11.8711 40.9035L12.1085 40.5527C27.8462 51.1888 42.8151 53.2029 52.1537 45.9273L52.4138 46.2668C48.6263 49.22 43.9457 50.6683 38.6659 50.6683Z" fill="white"/>
<path d="M91.758 93.7331L91.2832 93.4276C87.3035 90.9044 85.1215 87.8041 84.9519 84.4549C84.8841 82.95 85.2233 81.4111 85.9468 79.861C79.3669 66.6564 69.1464 54.9228 57.7049 46.9684C49.3725 50.2271 40.1809 46.5611 32.2442 36.5021L31.9163 36.0947L32.4364 36.1513C40.9158 37.1696 49.6325 40.881 57.7501 46.4819C59.3669 45.8256 60.9497 44.9091 62.4873 43.7097L62.5551 43.6531H62.6455C75.1272 45.158 88.6037 58.1476 92.6851 72.6194L92.7303 72.7552L92.6173 72.8457C89.6665 75.154 87.5749 77.5188 86.4217 79.8497C88.5585 84.1607 90.3109 88.6301 91.5998 93.1787L91.7467 93.7218L91.758 93.7331ZM86.2069 80.3588C85.6077 81.7393 85.325 83.1084 85.3929 84.4435C85.5398 87.4986 87.4844 90.3726 91.0458 92.76C89.8134 88.5396 88.1854 84.387 86.2182 80.3702L86.2069 80.3588ZM58.1911 46.776C69.5195 54.7192 79.6269 66.3283 86.2069 79.3858C87.394 77.1115 89.429 74.8258 92.2555 72.6081C88.1741 58.3739 74.9576 45.6332 62.7021 44.117C61.2436 45.2485 59.7286 46.1424 58.1911 46.7874V46.776ZM32.9225 36.6378C40.5653 46.1085 49.3273 49.6048 57.2866 46.6629C49.4743 41.3109 41.0967 37.7241 32.9225 36.6378Z" fill="white"/>
<path d="M64.251 53.8591C63.3804 53.8591 62.5664 53.7233 61.8202 53.4517C59.2651 52.5239 57.4675 49.9894 56.6309 46.1423L57.0492 46.0518C57.8519 49.7517 59.5591 52.1731 61.9672 53.0557C65.2007 54.2325 69.6665 52.705 74.8672 48.6542L75.1272 48.9936C70.9893 52.2184 67.2809 53.8704 64.251 53.8704V53.8591Z" fill="white"/>
<path d="M75.9299 67.7427C75.8055 67.7427 75.749 67.6862 75.7038 67.6183C75.5229 67.358 75.2742 66.9959 85.5625 58.9736L85.8225 59.3131C79.0164 64.6198 76.9474 66.4981 76.3256 67.1657C76.6083 67.0299 77.0718 66.7923 77.8745 66.317L78.0893 66.6904C76.7213 67.5051 76.1786 67.7427 75.9186 67.7427H75.9299Z" fill="white"/>
<path d="M66.0034 140C64.5449 140 63.0412 139.909 61.515 139.728L61.3228 139.706V139.513C61.8315 119.61 67.7897 103.317 77.2413 95.9508L77.3092 95.8943H77.3996C82.329 96.494 86.58 95.1588 89.4629 92.1377C86.6478 89.8747 85.0989 87.2609 84.9632 84.4662C84.771 80.5738 87.3374 76.4438 92.3685 72.5175L92.6173 72.3252L92.7077 72.6307C94.9237 80.4607 94.0192 87.4872 90.243 91.9114C90.1978 91.968 90.1413 92.0245 90.0961 92.0811C90.537 92.4206 91.0231 92.7487 91.5206 93.0768L91.5884 93.1221L91.611 93.2013C95.9525 108.601 94.2001 122.405 86.7835 131.084C81.8089 136.911 74.5393 140 66.0034 140ZM61.7637 139.321C71.9954 140.487 80.7688 137.477 86.4669 130.801C93.7705 122.247 95.5003 108.612 91.2267 93.3937C90.7292 93.0768 90.2543 92.7374 89.8021 92.3979C86.84 95.5209 82.4872 96.9126 77.4449 96.3355C68.1515 103.634 62.3064 119.678 61.7637 139.321ZM92.3798 73.0607C87.6314 76.8286 85.2233 80.7662 85.3928 84.4435C85.5172 87.1138 87.0209 89.6258 89.7569 91.8096C89.8134 91.753 89.8699 91.6851 89.9152 91.6285C93.5443 87.3741 94.4375 80.6191 92.3798 73.0494V73.0607Z" fill="white"/>
<path d="M92.5042 118.683C83.3125 105.218 83.4934 92.7487 93.0129 85.3374L93.273 85.6769C83.9683 92.9297 83.81 105.184 92.8547 118.445L92.5042 118.683Z" fill="white"/>
<path d="M47.394 67.6747L47.3035 67.3692C45.0989 59.5392 45.992 52.5127 49.7682 48.0885C49.8134 48.0319 49.8699 47.9754 49.9152 47.9188C49.4742 47.5793 48.9881 47.2512 48.4906 46.9231L48.4228 46.8778L48.4002 46.7986C44.0588 31.3989 45.8112 17.5947 53.2278 8.91611C59.0503 2.09319 68.0271 -0.973162 78.485 0.282798L78.6772 0.305428V0.497783C78.1684 20.4008 72.2102 36.6943 62.7586 44.0604L62.6908 44.117H62.6003C57.671 43.5173 53.42 44.8524 50.537 47.8735C53.3521 50.1365 54.901 52.7503 55.0367 55.5451C55.2289 59.4374 52.6625 63.5674 47.6314 67.4937L47.3827 67.686L47.394 67.6747ZM50.2543 48.179C50.1978 48.2356 50.1526 48.3035 50.0961 48.3601C46.4669 52.6145 45.5737 59.3695 47.6314 66.9392C52.3798 63.1713 54.788 59.2337 54.6184 55.5564C54.494 52.886 52.9904 50.3741 50.2543 48.1903V48.179ZM48.7846 46.6062C49.282 46.9231 49.7569 47.2625 50.2091 47.602C53.1712 44.479 57.524 43.0873 62.5664 43.6644C71.8598 36.3662 77.7049 20.3216 78.2476 0.678822C68.0158 -0.497934 59.2425 2.52316 53.5443 9.19899C46.2408 17.7531 44.511 31.3876 48.7846 46.6062Z" fill="white"/>
<path d="M53.7591 59.8563C51.2832 51.0759 52.2894 43.1894 56.5178 38.2334C59.853 34.3298 64.9858 32.5759 70.9666 33.2888L70.9214 33.7187C65.0989 33.0172 60.0904 34.7258 56.8456 38.5163C52.7077 43.3591 51.7354 51.0985 54.1774 59.7431L53.7591 59.8563Z" fill="white"/>
<path d="M53.9853 52.8182C50.7631 41.4014 52.0633 31.1614 57.5692 24.7232C61.8993 19.6541 68.5585 17.3684 76.3256 18.3076L76.2804 18.7376C68.6602 17.821 62.1368 20.0501 57.8971 25.006C52.4929 31.3311 51.2153 41.4354 54.4036 52.7051L53.9853 52.8182Z" fill="white"/>
<path d="M52.4138 46.2668L52.1537 45.9273C61.4924 38.6518 63.6065 23.32 57.8293 4.9106L58.2363 4.78613C64.0701 23.3653 61.8994 38.8781 52.4138 46.2668Z" fill="white"/>
<path d="M92.3799 73.0607L92.2894 72.7552C88.2419 58.4305 74.935 45.588 62.6116 44.1057L62.0916 44.0491L62.4986 43.7323C71.8598 36.4342 77.7501 20.2764 78.2476 0.497868V0.260254L78.485 0.282884C103.053 3.22477 129.599 28.8079 137.648 57.3216L137.716 57.5592L137.467 57.5932C118.768 59.8448 102.001 65.5589 92.6286 72.8683L92.3799 73.0607ZM63.1656 43.7436C75.4098 45.5088 88.4906 58.1702 92.6173 72.3252C102.058 65.095 118.666 59.4488 137.174 57.1858C129.112 29.0116 102.951 3.77921 78.6772 0.735482C78.1345 20.2538 72.3572 36.2645 63.1656 43.7436Z" fill="white"/>
<path d="M104.262 65.8983C99.7173 49.8084 84.7597 35.3705 70.9214 33.7185L70.9666 33.2886C84.9632 34.9632 100.09 49.5369 104.669 65.7738L104.251 65.887L104.262 65.8983Z" fill="white"/>
<path d="M119.751 60.6822C113.827 39.7043 94.3244 20.8875 76.269 18.7264L76.3143 18.2964C94.5279 20.4689 114.189 39.4327 120.158 60.5578L119.74 60.6709L119.751 60.6822Z" fill="white"/>
<path d="M75.1159 48.9826L74.8558 48.6432C84.2397 41.3337 94.641 26.9298 102.679 10.1157L103.064 10.2968C95.0028 27.1561 84.5562 41.6166 75.1159 48.9713V48.9826Z" fill="white"/>
<path d="M112.041 104.12C110.582 104.12 109.079 104.03 107.552 103.849H107.462L107.405 103.769C101.899 96.7995 95.7942 92.9411 89.8022 92.3866C86.8287 95.5435 82.4308 96.9352 77.3318 96.3356L76.8118 96.279L77.2188 95.9622C81.1193 92.9184 85.3477 91.6059 89.6326 91.9454C89.723 91.8548 89.8022 91.753 89.8926 91.6512C93.5783 87.3402 94.4375 80.4607 92.2668 72.7665L92.2216 72.6307L92.3347 72.5402C101.775 65.1855 118.621 59.4375 137.388 57.1745L137.569 57.1519L137.614 57.3329C141.956 72.7326 140.204 86.5368 132.787 95.2154C127.812 101.043 120.543 104.132 112.007 104.132L112.041 104.12ZM107.688 103.43C117.965 104.641 126.772 101.62 132.493 94.9212C139.785 86.3897 141.526 72.8004 137.275 57.6158C118.722 59.8788 102.103 65.5362 92.7304 72.7778C94.8898 80.5512 93.9853 87.5212 90.2318 91.9227C90.2092 91.9454 90.1979 91.968 90.1752 91.9793C96.1447 92.6469 102.205 96.5166 107.688 103.43ZM77.931 95.9622C82.5212 96.3808 86.4896 95.1135 89.2482 92.3414C85.3477 92.1038 81.5037 93.3031 77.931 95.9622Z" fill="white"/>
<path d="M90.0283 92.4999C89.1916 92.4999 88.3324 92.4433 87.4619 92.3414L87.5071 91.9115C93.3409 92.613 98.338 90.9044 101.572 87.1139C105.709 82.2711 106.682 74.5317 104.251 65.8871L104.669 65.7739C107.145 74.5543 106.139 82.4409 101.911 87.3968C99.0616 90.7347 94.9011 92.4999 90.0283 92.4999Z" fill="white"/>
<path d="M101.153 95.2831C100.068 95.2831 98.9599 95.2153 97.818 95.0795L97.8632 94.6495C105.483 95.566 112.007 93.337 116.246 88.381C121.651 82.056 122.928 71.9517 119.74 60.682L120.158 60.5688C123.38 71.9856 122.08 82.2257 116.574 88.6639C112.877 92.9975 107.484 95.2831 101.153 95.2831Z" fill="white"/>
<path d="M93.273 85.677L93.013 85.3375C102.476 77.9602 119.582 76.8853 138.79 82.4748L138.666 82.8935C119.593 77.3492 102.634 78.3901 93.273 85.6883V85.677Z" fill="white"/>
<path d="M129.101 98.7344L128.977 98.6552C112.9 88.2681 97.7388 86.4011 88.4002 93.6653L88.1402 93.3259C93.2504 89.343 94.8106 81.6488 92.2894 72.7439C88.2419 58.4192 74.935 45.5767 62.6116 44.0945C58.3946 43.5853 54.675 44.4792 51.8711 46.663L51.6111 46.3235C60.9384 39.048 62.8717 23.8633 56.7552 5.70281L56.71 5.55571L56.8344 5.46519C62.4873 1.06368 69.983 -0.746718 78.485 0.282943C103.053 3.22483 129.599 28.808 137.648 57.3217C142.691 75.1653 139.536 90.6103 129.226 98.6552L129.101 98.7457V98.7344ZM102.216 88.8564C110.164 88.8564 119.469 92.0133 129.079 98.2026C139.152 90.2482 142.205 75.0182 137.23 57.4235C129.226 29.0682 102.849 3.62086 78.4398 0.701597C70.1074 -0.29412 62.7699 1.43707 57.2075 5.72544C62.883 22.6979 61.5715 37.1018 53.7931 44.977C56.3256 43.7324 59.3443 43.2911 62.6682 43.6871C75.1498 45.1807 88.6263 58.1703 92.7077 72.6421C94.935 80.5399 94.0079 87.51 90.277 91.8889C93.714 89.8635 97.7614 88.8678 102.227 88.8678L102.216 88.8564Z" fill="white"/>
<path d="M66.0034 140C64.5449 140 63.0412 139.909 61.515 139.728L61.3228 139.706V139.513C61.8315 119.61 67.7897 103.317 77.2413 95.9508L77.3092 95.8943H77.3996C82.329 96.494 86.58 95.1588 89.4629 92.1377C86.6478 89.8747 85.0989 87.2609 84.9632 84.4662C84.771 80.5738 87.3374 76.4438 92.3685 72.5175L92.6173 72.3252L92.7077 72.6307C94.9237 80.4607 94.0192 87.4872 90.243 91.9114C90.1978 91.968 90.1413 92.0245 90.0961 92.0811C90.537 92.4206 91.0231 92.7487 91.5206 93.0768L91.5884 93.1221L91.611 93.2013C95.9525 108.601 94.2001 122.405 86.7835 131.084C81.8089 136.911 74.5393 140 66.0034 140ZM61.7637 139.321C71.9954 140.487 80.7688 137.477 86.4669 130.801C93.7705 122.247 95.5003 108.612 91.2267 93.3937C90.7292 93.0768 90.2543 92.7374 89.8021 92.3979C86.84 95.5209 82.4872 96.9126 77.4449 96.3355C68.1515 103.634 62.3064 119.678 61.7637 139.321ZM92.3798 73.0607C87.6314 76.8286 85.2233 80.7662 85.3928 84.4435C85.5172 87.1138 87.0209 89.6258 89.7569 91.8096C89.8134 91.753 89.8699 91.6851 89.9152 91.6285C93.5443 87.3741 94.4375 80.6191 92.3798 73.0494V73.0607Z" fill="white"/>
<path d="M81.7637 135.214C75.9186 116.634 78.1006 101.122 87.5862 93.7329L87.8462 94.0724C78.5076 101.348 76.3934 116.68 82.1707 135.089L81.7637 135.214Z" fill="white"/>
<path d="M112.041 104.12C110.582 104.12 109.079 104.03 107.552 103.849H107.462L107.405 103.769C101.899 96.7995 95.7942 92.9411 89.8021 92.3866C86.8287 95.5435 82.4307 96.9352 77.3318 96.3356L76.8117 96.279L77.2187 95.9622C81.1192 92.9184 85.3476 91.6059 89.6325 91.9454C89.723 91.8548 89.8021 91.753 89.8925 91.6512C93.5782 87.3402 94.4375 80.4607 92.2668 72.7665L92.2215 72.6307L92.3346 72.5402C101.775 65.1855 118.621 59.4375 137.388 57.1745L137.569 57.1519L137.614 57.3329C141.956 72.7326 140.203 86.5368 132.787 95.2154C127.812 101.043 120.543 104.132 112.007 104.132L112.041 104.12ZM107.688 103.43C117.965 104.641 126.772 101.62 132.493 94.9212C139.785 86.3897 141.526 72.8004 137.275 57.6158C118.722 59.8788 102.103 65.5362 92.7303 72.7778C94.8897 80.5512 93.9852 87.5212 90.2317 91.9227C90.2091 91.9454 90.1978 91.968 90.1752 91.9793C96.1447 92.6469 102.205 96.5166 107.688 103.43ZM77.931 95.9622C82.5211 96.3808 86.4895 95.1135 89.2481 92.3414C85.3476 92.1038 81.5036 93.3031 77.931 95.9622Z" fill="white"/>
<path d="M90.0282 92.4999C89.1916 92.4999 88.3323 92.4433 87.4618 92.3414L87.507 91.9115C93.3408 92.613 98.338 90.9044 101.571 87.1139C105.709 82.2711 106.682 74.5317 104.251 65.8871L104.669 65.7739C107.145 74.5543 106.139 82.4409 101.911 87.3968C99.0616 90.7347 94.901 92.4999 90.0282 92.4999Z" fill="white"/>
<path d="M127.891 99.447C112.154 88.8109 97.1848 86.7968 87.8462 94.0724L87.5862 93.7329C97.0718 86.3329 112.233 88.3357 128.129 99.0849L127.891 99.4357V99.447Z" fill="white"/>
<path d="M79.6608 96.4714C78.9146 96.4714 78.1458 96.4262 77.3544 96.3357L76.8344 96.2791L77.2414 95.9623C81.2888 92.8054 85.6755 91.4815 90.277 92.036C90.684 92.0812 90.797 92.0812 90.8988 92.0812L90.9327 92.5112C90.4013 92.5791 89.5421 92.8393 88.4002 93.6993C86.0373 95.5436 83.0412 96.4941 79.6608 96.4941V96.4714ZM77.9423 95.9623C81.9446 96.3357 85.4607 95.4305 88.1402 93.3372C88.7394 92.8846 89.2708 92.5904 89.723 92.3981C85.5738 92.0247 81.6167 93.224 77.931 95.9623H77.9423Z" fill="white"/>
<path d="M66.0034 140C64.5449 140 63.0412 139.909 61.515 139.728L61.3228 139.706V139.513C61.8315 119.61 67.7897 103.317 77.2413 95.9508L77.3092 95.8943H77.3996C82.329 96.494 86.58 95.1588 89.4629 92.1377C86.6478 89.8747 85.0989 87.2609 84.9632 84.4662C84.771 80.5738 87.3374 76.4438 92.3685 72.5175L92.6173 72.3252L92.7077 72.6307C94.9237 80.4607 94.0192 87.4872 90.243 91.9114C90.1978 91.968 90.1413 92.0245 90.0961 92.0811C90.537 92.4206 91.0231 92.7487 91.5206 93.0768L91.5884 93.1221L91.611 93.2013C95.9525 108.601 94.2001 122.405 86.7835 131.084C81.8089 136.911 74.5393 140 66.0034 140ZM61.7637 139.321C71.9954 140.487 80.7688 137.477 86.4669 130.801C93.7705 122.247 95.5003 108.612 91.2267 93.3937C90.7292 93.0768 90.2543 92.7374 89.8021 92.3979C86.84 95.5209 82.4872 96.9126 77.4449 96.3355C68.1515 103.634 62.3064 119.678 61.7637 139.321ZM92.3798 73.0607C87.6314 76.8286 85.2233 80.7662 85.3928 84.4435C85.5172 87.1138 87.0209 89.6258 89.7569 91.8096C89.8134 91.753 89.8699 91.6851 89.9152 91.6285C93.5443 87.3741 94.4375 80.6191 92.3798 73.0494V73.0607Z" fill="white"/>
<path d="M81.7637 135.214C75.9186 116.634 78.1006 101.122 87.5862 93.7329L87.8462 94.0724C78.5076 101.348 76.3934 116.68 82.1707 135.089L81.7637 135.214Z" fill="white"/>
<path d="M112.041 104.12C110.582 104.12 109.079 104.03 107.552 103.849H107.462L107.405 103.769C101.899 96.7995 95.7942 92.9411 89.8021 92.3866C86.8287 95.5435 82.4307 96.9352 77.3318 96.3356L76.8117 96.279L77.2187 95.9622C81.1192 92.9184 85.3476 91.6059 89.6325 91.9454C89.723 91.8548 89.8021 91.753 89.8925 91.6512C93.5782 87.3402 94.4375 80.4607 92.2668 72.7665L92.2215 72.6307L92.3346 72.5402C101.775 65.1855 118.621 59.4375 137.388 57.1745L137.569 57.1519L137.614 57.3329C141.956 72.7326 140.203 86.5368 132.787 95.2154C127.812 101.043 120.543 104.132 112.007 104.132L112.041 104.12ZM107.688 103.43C117.965 104.641 126.772 101.62 132.493 94.9212C139.785 86.3897 141.526 72.8004 137.275 57.6158C118.722 59.8788 102.103 65.5362 92.7303 72.7778C94.8897 80.5512 93.9852 87.5212 90.2317 91.9227C90.2091 91.9454 90.1978 91.968 90.1752 91.9793C96.1447 92.6469 102.205 96.5166 107.688 103.43ZM77.931 95.9622C82.5211 96.3808 86.4895 95.1135 89.2481 92.3414C85.3476 92.1038 81.5036 93.3031 77.931 95.9622Z" fill="white"/>
<path d="M90.0282 92.4999C89.1916 92.4999 88.3323 92.4433 87.4618 92.3414L87.507 91.9115C93.3408 92.613 98.338 90.9044 101.571 87.1139C105.709 82.2711 106.682 74.5317 104.251 65.8871L104.669 65.7739C107.145 74.5543 106.139 82.4409 101.911 87.3968C99.0616 90.7347 94.901 92.4999 90.0282 92.4999Z" fill="white"/>
<path d="M101.153 95.2831C100.068 95.2831 98.9598 95.2153 97.8179 95.0795L97.8632 94.6495C105.483 95.566 112.007 93.337 116.246 88.381C121.651 82.056 122.928 71.9517 119.74 60.682L120.158 60.5688C123.38 71.9856 122.08 82.2257 116.574 88.6639C112.877 92.9975 107.484 95.2831 101.153 95.2831Z" fill="white"/>
<path d="M127.891 99.447C112.154 88.8109 97.1848 86.7968 87.8462 94.0724L87.5862 93.7329C97.0718 86.3329 112.233 88.3357 128.129 99.0849L127.891 99.4357V99.447Z" fill="white"/>
<path d="M112.086 104.12C110.616 104.12 109.101 104.03 107.552 103.849H107.462L107.405 103.769C102.284 97.2747 96.5291 93.405 90.7518 92.5224C89.6438 92.7487 88.7394 93.4163 88.3889 93.6765L88.1288 93.3371C97.6144 85.9484 112.968 87.8041 129.203 98.293L129.452 98.4515L129.214 98.6325C124.579 102.253 118.711 104.109 112.075 104.109L112.086 104.12ZM107.688 103.43C115.919 104.403 123.188 102.695 128.717 98.4967C114.064 89.094 100.17 86.797 90.8083 92.0698C90.8422 92.0698 90.8535 92.0698 90.8762 92.0698V92.1151C96.7326 93.0203 102.521 96.9239 107.688 103.441V103.43Z" fill="white"/>
<path d="M137.241 57.446C134.279 49.8876 122.793 44.3886 105.732 42.3405L105.585 42.3179L105.551 42.1821C99.9435 22.3357 90.0395 7.19628 78.3606 0.667545L77.4109 0.135742L78.485 0.260207C103.053 3.2021 129.599 28.7852 137.648 57.2989L137.241 57.4347V57.446ZM105.924 41.9332C121.447 43.8115 132.38 48.5638 136.552 55.1491C127.948 28.129 102.962 4.2657 79.5025 0.848585C90.8423 7.68282 100.43 22.5733 105.924 41.9445V41.9332Z" fill="white"/>
<path d="M105.879 42.3065L105.642 41.9558C123.38 29.6903 123.912 30.1543 124.161 30.3353C124.194 30.3692 124.319 30.4824 124.24 30.6974L123.844 30.539C123.844 30.539 123.844 30.5955 123.878 30.6408C123.912 30.6861 123.957 30.6974 123.968 30.6974C123.663 30.6974 121.436 31.5686 105.913 42.3065H105.879Z" fill="white"/>
<path d="M134.505 49.503C133.906 48.0886 133.137 46.3574 132.448 44.8865C127.462 34.5899 120.147 24.9269 111.543 17.2327C109.746 15.7052 107.439 13.8269 105.574 12.3673L105.834 12.0278C107.891 13.544 109.893 15.1734 111.826 16.9046C112.086 17.1196 112.323 17.3345 112.561 17.5382C113.375 18.2397 114.347 19.2015 115.206 20.0388C115.489 20.3217 115.76 20.5933 116.02 20.8422C118.033 22.7997 121.108 26.3526 122.793 28.525C124.059 30.1544 125.721 32.4966 127.858 35.6874C128.457 36.5926 129.146 37.7694 129.746 38.8103L130.141 39.4892C130.82 40.6434 131.701 42.3067 132.335 43.6192C132.493 43.9586 132.674 44.3207 132.855 44.7054C133.601 46.2443 134.291 47.7831 134.924 49.3446L134.528 49.5143L134.505 49.503Z" fill="white"/>
<path d="M107.744 103.871L107.552 103.848C82.9847 100.907 56.4387 75.3234 48.3889 46.8097L48.3324 46.5947L48.5472 46.5381C67.7445 41.5482 88.615 39.8623 105.777 41.9216L105.924 41.9443L105.958 42.08C111.588 62.017 112.256 84.4772 107.778 103.679L107.733 103.871H107.744ZM48.8638 46.9115C56.9248 75.1084 83.1091 100.386 107.405 103.407C111.803 84.3527 111.136 62.1188 105.585 42.3403C88.5585 40.3262 67.9028 41.9895 48.8638 46.9115Z" fill="white"/>
<path d="M110.288 84.3073C92.493 82.1801 73.2731 63.6575 67.4506 43.0077L67.8689 42.8945C73.6575 63.3859 92.7078 81.7727 110.345 83.8773L110.3 84.3073H110.288Z" fill="white"/>
<path d="M109.757 63.386C100.271 62.2545 90.0169 52.3765 86.9078 41.3671L87.3261 41.2539C90.39 52.105 100.475 61.8471 109.813 62.956L109.768 63.386H109.757Z" fill="white"/>
<path d="M83.3578 94.027L82.996 93.8007C93.5331 77.0658 101.752 58.2264 105.551 42.0913L105.969 42.1931C102.159 58.3735 93.9175 77.2695 83.3578 94.027Z" fill="white"/>
<path d="M48.4566 47.0135L48.4001 46.8099C44.0586 31.4102 45.811 17.606 53.2277 8.92739C59.0502 2.09316 68.027 -0.973198 78.4849 0.282763L78.564 0.305393C90.3334 6.8907 100.328 22.1206 105.958 42.0802L106.048 42.3857L105.732 42.3518C88.6149 40.3038 67.8122 41.9897 48.6601 46.957L48.4566 47.0135ZM74.0078 0.429857C65.5962 0.429857 58.4396 3.47358 53.5442 9.19895C46.2633 17.7304 44.5109 31.3084 48.7505 46.4817C67.7782 41.5597 88.4114 39.8851 105.461 41.8765C99.8529 22.1998 89.9942 7.1962 78.3944 0.690101C76.902 0.509062 75.4323 0.429857 73.9964 0.429857H74.0078Z" fill="white"/>
<path d="M67.4505 43.0083C64.2962 31.8517 65.5737 21.8493 70.9553 15.5582C75.1837 10.6022 81.6958 8.37317 89.282 9.27837L89.2368 9.70834C81.7976 8.82577 75.4211 10.9982 71.2832 15.8297C66.0034 22.0077 64.7597 31.8743 67.8688 42.8838L67.4505 42.9969V43.0083Z" fill="white"/>
<path d="M86.9078 41.3785C85.2233 35.4155 85.9129 30.0635 88.7846 26.703C91.0571 24.0439 94.5393 22.8446 98.6094 23.3311L98.5641 23.7611C94.641 23.2858 91.2832 24.44 89.1125 26.9858C86.3312 30.2445 85.6755 35.4494 87.3148 41.2653L86.8965 41.3785H86.9078Z" fill="white"/>
<path d="M105.642 42.3181C88.0271 30.5165 66.7722 22.9921 47.3035 21.6682L47.3374 21.2383C66.8739 22.5734 88.208 30.1205 105.879 41.9673L105.642 42.3294V42.3181Z" fill="white"/>
<path d="M105.585 42.2613C92.1085 24.0782 74.7541 10.5115 57.9649 5.05773L58.1006 4.65039C74.9689 10.1381 92.4024 23.75 105.936 42.0124L105.596 42.2726L105.585 42.2613Z" fill="white"/>
<path d="M137.241 57.446C134.279 49.8876 122.793 44.3886 105.732 42.3405L105.585 42.3179L105.551 42.1821C99.9435 22.3357 90.0395 7.19628 78.3606 0.667545L77.4109 0.135742L78.485 0.260207C103.053 3.2021 129.599 28.7852 137.648 57.2989L137.241 57.4347V57.446ZM105.924 41.9332C121.447 43.8115 132.38 48.5638 136.552 55.1491C127.948 28.129 102.962 4.2657 79.5025 0.848585C90.8423 7.68282 100.43 22.5733 105.924 41.9445V41.9332Z" fill="white"/>
<path d="M131.701 50.6911C125.913 30.1997 106.863 11.8129 89.2255 9.70829L89.2707 9.27832C107.066 11.4055 126.286 29.9281 132.109 50.5779L131.69 50.6911H131.701Z" fill="white"/>
<path d="M121.051 45.4636C117.988 34.6126 107.903 24.8704 98.5641 23.7615L98.6094 23.3315C108.106 24.463 118.349 34.341 121.458 45.3505L121.04 45.4636H121.051Z" fill="white"/>
<path d="M105.969 42.182L105.551 42.0802C109.327 26.0129 108.31 14.4604 102.747 10.3757L102.996 10.0249C108.705 14.2114 109.791 25.9224 105.958 42.1707L105.969 42.182Z" fill="white"/>
<path d="M112.041 104.12C110.582 104.12 109.079 104.029 107.552 103.848L107.315 103.814L107.371 103.577C111.826 84.4319 111.159 62.0623 105.551 42.1932L105.461 41.8877L105.777 41.9216C123.007 43.981 134.618 49.5819 137.637 57.2987V57.3213C141.99 72.721 140.237 86.5252 132.821 95.2038C127.846 101.031 120.577 104.12 112.041 104.12ZM107.835 103.452C118.055 104.618 126.806 101.585 132.493 94.9209C139.808 86.3555 141.538 72.6983 137.23 57.4458C134.279 49.9439 122.928 44.4562 106.037 42.3969C111.566 62.1754 112.21 84.398 107.824 103.452H107.835Z" fill="white"/>
<path d="M113.544 84.4998C112.482 84.4998 111.396 84.4319 110.288 84.3074L110.333 83.8775C117.784 84.7714 124.149 82.5876 128.287 77.7561C133.567 71.5781 134.811 61.7115 131.701 50.702L132.12 50.5889C135.274 61.7454 133.997 71.7478 128.615 78.039C125.008 82.2708 119.729 84.5111 113.544 84.5111V84.4998Z" fill="white"/>
<path d="M111.498 63.4993C110.933 63.4993 110.356 63.4653 109.757 63.3975L109.802 62.9675C113.725 63.4314 117.083 62.2886 119.254 59.7427C122.035 56.484 122.691 51.2791 121.051 45.4632L121.47 45.3501C123.154 51.3131 122.465 56.6651 119.593 60.0256C117.66 62.2999 114.822 63.4993 111.509 63.4993H111.498Z" fill="white"/>
<path d="M138.519 82.7235C135.218 68.8287 123.233 54.0966 105.642 42.3064L105.879 41.9443C123.561 53.7911 135.613 68.6137 138.937 82.6103L138.519 82.7121V82.7235Z" fill="white"/>
<path d="M127.801 99.2773C127.168 81.2299 119.073 60.4444 105.585 42.2612L105.924 42.001C119.457 60.252 127.586 81.1281 128.219 99.2547H127.79L127.801 99.2773Z" fill="white"/>
<path d="M112.041 104.12C110.639 104.12 109.203 104.041 107.744 103.871L107.315 103.815C82.8151 100.737 56.416 75.2217 48.3889 46.8099C44.0475 31.4102 45.7999 17.606 53.2165 8.92739C59.0503 2.09316 68.0271 -0.973198 78.485 0.282763C87.394 1.34637 96.8343 5.40844 105.811 12.0277C107.089 12.9781 108.536 14.0644 109.587 14.9809C109.87 15.2185 110.164 15.4788 110.48 15.7503C111.295 16.4518 112.222 17.2439 112.934 17.9002C113.669 18.5791 114.573 19.4503 115.365 20.231L116.077 20.9212C118.745 23.5124 121.662 27.1332 122.759 28.5023C124.409 30.5616 125.065 31.5573 127.835 35.6986C128.445 36.6151 129.146 37.8258 129.757 38.8894L130.209 39.6588C131.17 41.3108 132.301 43.6191 133.081 45.2145C133.477 46.0405 133.917 47.0588 134.336 48.0319C134.528 48.4958 134.72 48.9371 134.901 49.3331C135.986 51.9808 136.914 54.6625 137.66 57.3102C142.001 72.7098 140.249 86.5141 132.832 95.1926C127.858 101.02 120.588 104.109 112.052 104.109L112.041 104.12ZM107.835 103.453C118.055 104.618 126.806 101.586 132.493 94.9211C139.808 86.3557 141.538 72.6872 137.23 57.4346C136.484 54.7982 135.568 52.1279 134.494 49.5028C134.324 49.1068 134.132 48.6655 133.94 48.2016C133.522 47.2285 133.092 46.2215 132.696 45.3955C131.928 43.8114 130.797 41.5032 129.847 39.8625L129.395 39.0931C128.785 38.0408 128.095 36.8414 127.484 35.9249C124.726 31.7949 124.07 30.8105 122.431 28.7738C121.334 27.4047 118.428 23.7952 115.783 21.2268L115.071 20.5365C114.279 19.7671 113.386 18.8846 112.651 18.217C111.939 17.572 111.023 16.78 110.209 16.0784C109.893 15.8069 109.587 15.5466 109.316 15.309C108.265 14.3925 106.761 13.261 105.562 12.3785C96.6535 5.80446 87.2696 1.76502 78.4398 0.712731C68.1176 -0.520599 59.2764 2.50049 53.5444 9.21027C46.2295 17.7757 44.4997 31.4442 48.8072 46.6967C56.7891 74.9841 83.0526 100.375 107.417 103.396C111.826 84.2963 111.148 62.0059 105.551 42.1934L105.969 42.0802C106.003 42.1821 106.026 42.2952 106.06 42.397C106.06 42.397 106.083 42.4762 106.094 42.5215C111.588 62.2661 112.222 84.4321 107.846 103.441L107.835 103.453Z" fill="white"/>
</g>
<defs>
<clipPath id="clip0_40_5528">
<rect width="140" height="140" fill="white"/>
</clipPath>
</defs>
</svg>
