<svg width="180" height="140" viewBox="0 0 180 140" fill="none" xmlns="http://www.w3.org/2000/svg">
<g clip-path="url(#clip0_40_5503)">
<path d="M90 140C79.9444 140 72.6502 132.61 64.9392 124.778C58.9371 118.689 52.737 112.396 45.0677 109.804C31.0211 105.051 15.745 101.78 0.969042 98.6225L0.010376 98.4188L37.8881 0L38.0861 0.101859C45.8805 4.1536 53.9874 7.69604 62.1882 10.6613C64.7203 11.578 66.8148 13.2417 68.2424 15.4713C73.7026 23.9822 79.861 32.0517 86.5508 39.4535C87.4678 40.4721 88.6974 41.0267 90 41.0267C91.3025 41.0267 92.5321 40.4721 93.4491 39.4535C100.139 32.0631 106.297 23.9935 111.757 15.4713C113.196 13.2304 115.29 11.5667 117.812 10.6613C126.002 7.70736 134.109 4.1536 141.914 0.101859L142.112 0L142.195 0.215036L180 98.4074L179.75 98.464C177.603 98.9281 175.405 99.3808 173.164 99.8448C158.315 102.923 141.487 106.409 128.305 113.222C122.886 116.018 118.218 120.85 113.706 125.536C106.839 132.643 99.7325 140 90 140ZM0.583492 98.0792L1.04198 98.1811C15.8284 101.339 31.1149 104.598 45.1823 109.374C52.9454 112 59.1872 118.338 65.2205 124.449C72.869 132.213 80.1007 139.547 90 139.547C99.8992 139.547 106.297 132.576 113.425 125.208C117.968 120.511 122.657 115.644 128.138 112.815C141.372 105.979 158.222 102.493 173.091 99.4034C175.238 98.962 177.353 98.5206 179.427 98.0792L141.903 0.611156C134.151 4.62894 126.096 8.14875 117.958 11.0914C115.509 11.9741 113.487 13.5812 112.112 15.7316C106.641 24.2652 100.462 32.3573 93.7617 39.7704C92.7613 40.8682 91.4379 41.4794 90.0104 41.4794C88.5828 41.4794 87.2594 40.8682 86.2591 39.7704C79.5588 32.3573 73.3796 24.2652 67.9089 15.7316C66.523 13.5812 64.5015 11.9741 62.0632 11.0914C53.9249 8.14875 45.8596 4.62894 38.1174 0.611156L0.583492 98.0792Z" fill="white"/>
<path d="M90 125.581C80.4237 125.581 73.6506 118.202 66.471 110.382C60.8857 104.293 55.1024 98 47.8395 95.3856C34.4911 90.5869 19.2462 87.1237 5.80408 84.0566L5.88744 83.6152C19.3504 86.6823 34.6057 90.1569 47.975 94.9556C55.3421 97.6039 61.1566 103.942 66.7732 110.065C73.8902 117.817 80.6009 125.129 90.0104 125.129C99.4199 125.129 105.38 118.168 111.997 110.8C116.228 106.092 120.604 101.214 125.773 98.4075C138.256 91.6055 154.345 88.0291 168.538 84.8715C170.434 84.4527 172.31 84.034 174.133 83.6152L174.217 84.0566C172.393 84.4754 170.518 84.8941 168.621 85.3129C154.46 88.4705 138.402 92.0356 125.96 98.8036C120.854 101.588 116.499 106.432 112.299 111.117C105.912 118.236 99.3053 125.581 90.0104 125.581H90Z" fill="white"/>
<path d="M90 114.501C81.8305 114.501 74.8697 105.9 68.1278 97.57C63.0948 91.3453 58.3327 85.4714 53.2581 83.2192C44.307 79.2467 31.636 76.2814 20.4654 73.6671C16.9642 72.8522 13.661 72.0713 10.6808 71.313L10.7746 70.8716C13.7548 71.6299 17.058 72.3995 20.5488 73.2144C31.7402 75.8287 44.4217 78.8053 53.404 82.7891C58.5724 85.0753 63.3553 90.9945 68.43 97.2645C75.099 105.515 82.0076 114.037 89.9896 114.037C98.3675 114.037 105.005 105.617 111.435 97.4795C116.405 91.1869 121.094 85.2451 126.565 82.7891C135.953 78.5789 147.416 75.9532 158.503 73.4067C162.265 72.5466 165.818 71.7317 169.194 70.8716L169.288 71.313C165.901 72.1731 162.348 72.988 158.586 73.8481C147.52 76.3833 136.078 79.009 126.721 83.2079C121.334 85.6185 116.676 91.5264 111.747 97.7738C105.266 105.99 98.555 114.49 89.9896 114.49L90 114.501Z" fill="white"/>
<path d="M88.6349 100.977C80.0486 100.977 75.0677 93.6428 70.2327 86.5466C66.8357 81.5555 63.3136 76.3946 58.562 73.6784C50.2779 68.9589 36.2417 65.4165 24.967 62.5757C21.3511 61.659 17.9333 60.7988 15.0469 59.984L15.1511 59.5426C18.0271 60.3574 21.4449 61.2176 25.0608 62.123C36.3564 64.9751 50.4237 68.5175 58.7496 73.2596C63.5846 76.0098 67.1379 81.216 70.5557 86.2524C75.8076 93.971 80.778 101.248 89.9791 100.433C98.6488 99.6638 103.296 93.3033 108.215 86.5579C111.851 81.5668 115.623 76.406 121.25 73.2483C130.316 68.1553 142.81 65.0769 153.835 62.3607C157.753 61.3987 161.452 60.4819 164.849 59.5312L164.953 59.9726C161.546 60.9346 157.846 61.8401 153.928 62.8134C142.935 65.5183 130.462 68.5967 121.448 73.6671C115.905 76.7794 112.164 81.9064 108.548 86.8522C103.567 93.6654 98.8676 100.105 90.0208 100.897C89.5519 100.943 89.083 100.954 88.6349 100.954V100.977Z" fill="white"/>
<path d="M88.6974 90.8247C80.4862 90.8247 75.4845 83.2644 70.6287 75.9532C67.4921 71.2224 64.2514 66.3218 60.1771 63.5264C53.4456 58.9087 38.6905 55.072 27.9159 52.2652C24.3939 51.3485 21.3511 50.5563 18.9545 49.8432L19.0691 49.4019C21.4658 50.1149 24.4981 50.9071 28.0201 51.8238C38.8259 54.6306 53.6228 58.4787 60.4064 63.1415C64.5536 65.9823 67.8152 70.9168 70.9725 75.6816C76.2348 83.6266 81.2157 91.1529 89.9791 90.304C98.3466 89.5118 103.234 82.7551 108.413 75.6137C111.716 71.0526 115.134 66.3331 119.583 63.1415C126.971 57.8335 140.028 54.6533 150.511 52.1068C154.335 51.1787 157.94 50.296 160.92 49.4132L161.035 49.8546C158.044 50.7487 154.429 51.6201 150.604 52.5482C140.153 55.0947 127.138 58.2523 119.812 63.5264C115.415 66.684 112.018 71.3695 108.736 75.9079C103.494 83.1286 98.555 89.9532 90.0104 90.7681C89.5623 90.8133 89.1247 90.836 88.687 90.836L88.6974 90.8247Z" fill="white"/>
<path d="M90.0001 83.8866C84.123 83.8866 76.4224 74.5947 69.6388 66.4007C65.4915 61.3983 61.5735 56.6675 58.5829 54.6643C50.3926 49.1752 40.3995 46.176 30.7503 43.2673C27.8743 42.4072 25.1546 41.581 22.4662 40.6982L22.5912 40.2682C25.2797 41.1509 27.9889 41.9658 30.8649 42.826C40.5558 45.7346 50.5697 48.7564 58.8121 54.2795C61.8444 56.3167 65.7833 61.0701 69.9514 66.0952C76.6829 74.2213 84.3106 83.4226 90.0105 83.4226C96.4085 83.4226 101.921 74.9795 106.777 67.5212C109.538 63.277 112.154 59.2819 114.613 57.3692C123.189 50.6918 137.673 46.3118 149.323 42.7807C152.23 41.8979 154.991 41.0604 157.43 40.2568L157.555 40.6869C155.106 41.4905 152.355 42.328 149.437 43.2108C137.829 46.7306 123.387 51.1105 114.863 57.7314C112.466 59.5988 109.872 63.5713 107.131 67.7815C102.213 75.3191 96.6378 83.8753 90.0209 83.8753L90.0001 83.8866Z" fill="white"/>
<path d="M90 75.6023C84.4043 75.6023 77.0267 66.2652 70.514 58.0372C66.5752 53.0461 62.8447 48.338 60.0521 46.38C52.2681 40.9362 42.6919 37.8917 33.4387 34.9604C30.7294 34.1003 28.1764 33.2967 25.6443 32.414L25.7693 31.9839C28.291 32.8553 30.844 33.6589 33.5533 34.5191C42.8378 37.4617 52.4453 40.5061 60.2813 45.9952C63.1261 47.9871 66.8669 52.7179 70.8371 57.7317C77.2872 65.8917 84.6023 75.1383 90 75.1383C96.1479 75.1383 101.421 66.6274 106.078 59.1124C108.684 54.9022 111.143 50.9297 113.435 49.0849C121.594 42.4754 135.505 38.0275 146.686 34.4511C149.396 33.5797 151.959 32.7648 154.231 31.9839L154.356 32.414C152.074 33.2062 149.51 34.0211 146.801 34.8925C135.651 38.4576 121.782 42.9055 113.685 49.4584C111.455 51.2579 109.017 55.2078 106.433 59.3727C101.723 66.9782 96.3772 75.591 90.0104 75.591L90 75.6023Z" fill="white"/>
<path d="M88.6558 64.873C81.6325 64.873 76.4849 57.7202 71.0663 50.1826C67.1379 44.7161 63.0635 39.0573 58.1556 36.1826C52.2264 32.708 45.099 30.4105 38.2112 28.1923C34.8141 27.0945 31.6151 26.0645 28.5411 24.8988L28.6766 24.4688C31.7402 25.6345 34.9392 26.6644 38.3258 27.7622C45.2344 29.9918 52.3723 32.3006 58.3432 35.7865C63.3345 38.7064 67.4296 44.3992 71.3894 49.9109C77.0788 57.8333 82.4557 65.2917 89.9687 64.341C97.2004 63.4016 101.389 57.7541 105.828 51.7671C108.559 48.0888 111.372 44.2974 115.061 41.3208C123.73 34.3265 133.421 30.8859 143.685 27.2416C146.176 26.3588 148.76 25.4421 151.303 24.4688L151.438 24.8988C148.885 25.8721 146.301 26.7889 143.81 27.6717C133.578 31.3046 123.918 34.7452 115.3 41.683C111.653 44.6256 108.85 48.3944 106.141 52.05C101.65 58.105 97.3984 63.8317 90 64.7824C89.5311 64.839 89.083 64.873 88.6349 64.873H88.6558Z" fill="white"/>
<path d="M88.6766 57.9918C81.9138 57.9918 77.0267 50.839 71.8582 43.3014C68.1069 37.8236 64.2306 32.1648 59.5206 29.2901C53.8728 25.8495 47.0475 23.5407 40.4411 21.2998C37.19 20.202 34.1264 19.1607 31.1879 17.995L31.3337 17.5649C34.2618 18.7193 37.3254 19.7606 40.5661 20.8584C47.1934 23.0993 54.05 25.4194 59.729 28.8826C64.5119 31.8026 68.4195 37.4954 72.1917 43.0185C77.6207 50.9408 82.7474 58.4219 89.9687 57.4372C96.9607 56.4752 100.941 50.839 105.161 44.8632C107.756 41.185 110.434 37.3936 113.977 34.417C122.272 27.4566 131.577 23.9934 141.434 20.3151C143.8 19.4324 146.249 18.5269 148.666 17.5649L148.812 17.995C146.384 18.957 143.935 19.8738 141.57 20.7565C131.754 24.4122 122.48 27.8754 114.238 34.7905C110.736 37.7218 108.079 41.5019 105.495 45.1462C101.223 51.1898 97.1899 56.9053 90.0312 57.8899C89.5727 57.9578 89.1246 57.9805 88.687 57.9805L88.6766 57.9918Z" fill="white"/>
<path d="M88.6975 51.6879C82.1848 51.6879 77.5165 44.5351 72.5773 36.9975C68.9927 31.5197 65.2935 25.8496 60.7711 22.9862C55.3942 19.5796 48.819 17.2481 42.4731 15.0072C39.3574 13.8981 36.4189 12.8569 33.6158 11.7024L33.7617 11.2837C36.5544 12.4381 39.4929 13.4793 42.6086 14.5771C48.9753 16.8294 55.5714 19.1721 60.9899 22.6014C65.5853 25.51 69.3157 31.2142 72.9212 36.7372C78.1105 44.6709 83.008 52.1519 89.9792 51.1446C96.7523 50.16 100.545 44.5351 104.557 38.5707C107.027 34.8924 109.59 31.101 112.987 28.1358C120.938 21.2093 129.889 17.7121 139.361 14.0226C141.612 13.1511 143.935 12.2344 146.238 11.2837L146.384 11.7024C144.071 12.6645 141.747 13.5699 139.496 14.4413C130.056 18.1196 121.136 21.6054 113.248 28.4866C109.892 31.4179 107.35 35.1867 104.891 38.8423C100.827 44.886 96.9816 50.5901 90.0313 51.5974C89.5832 51.6653 89.1351 51.6992 88.6975 51.6992V51.6879Z" fill="white"/>
<path d="M90 46.459C88.3536 46.459 86.7072 45.7913 85.4567 44.4445C78.496 36.9635 72.0771 28.7695 66.3668 20.1001C65.3664 18.5835 63.9805 17.4857 62.3445 16.9311C53.3414 13.8754 44.4216 10.1518 35.8353 5.87375L36.0125 5.46631C44.5884 9.7444 53.4873 13.4566 62.48 16.5011C64.1993 17.0783 65.6582 18.2327 66.7106 19.8398C72.4001 28.4865 78.8086 36.6579 85.7485 44.1163C88.0931 46.6401 91.9069 46.6288 94.241 44.1163C101.181 36.6579 107.589 28.4865 113.279 19.8398C114.331 18.244 115.801 17.0896 117.52 16.5011C126.502 13.4453 135.412 9.73308 143.987 5.46631L144.165 5.87375C135.578 10.1632 126.659 13.8754 117.655 16.9311C116.019 17.4857 114.634 18.5835 113.633 20.1001C107.923 28.7695 101.504 36.9635 94.5432 44.4445C93.2928 45.7913 91.6464 46.459 90 46.459Z" fill="white"/>
<path d="M163.202 101.848C158.065 85.5279 152.97 69.0833 148.051 53.1819C143.133 37.2805 138.048 20.8359 132.9 4.51578L133.296 4.36865C138.433 20.6888 143.529 37.1334 148.447 53.0348C153.366 68.9362 158.451 85.3808 163.598 101.701L163.202 101.848Z" fill="white"/>
<path d="M146.322 106.047C142.32 89.7266 138.392 73.7347 134.463 57.7428C130.535 41.7509 126.606 25.7703 122.605 9.43886L123.011 9.32568C127.013 25.6458 130.941 41.6377 134.87 57.6296C138.798 73.6216 142.727 89.6022 146.728 105.934L146.322 106.047Z" fill="white"/>
<path d="M130.91 111.615C128.055 95.3065 125.043 78.7939 122.126 62.836C119.198 46.8327 116.176 30.2862 113.321 13.9435L113.727 13.8643C116.582 30.207 119.604 46.7422 122.532 62.7454C125.45 78.7147 128.461 95.2272 131.316 111.536L130.91 111.615Z" fill="white"/>
<path d="M114.498 124.268C112.789 107.948 110.986 91.413 109.236 75.4324C107.496 59.4518 105.693 42.9167 103.974 26.5965L104.39 26.5513C106.099 42.8714 107.902 59.4066 109.653 75.3872C111.393 91.3678 113.196 107.903 114.915 124.223L114.498 124.268Z" fill="white"/>
<path d="M97.8986 138.415C97.3359 122.163 96.7628 105.107 96.221 88.6061C95.6687 71.9691 95.0956 54.7661 94.5225 38.3781L94.9393 38.3555C95.5124 54.7435 96.0855 71.9464 96.6378 88.5834C97.1901 105.073 97.7527 122.129 98.3154 138.381L97.8986 138.404V138.415Z" fill="white"/>
<path d="M82.4974 138.2L82.0806 138.178C82.6537 121.857 83.1122 104.779 83.5603 88.2665C84.0083 71.754 84.4668 54.6756 85.0399 38.3555L85.4567 38.3781C84.8836 54.6982 84.4251 71.7766 83.9771 88.2892C83.529 104.802 83.0601 121.88 82.4974 138.2Z" fill="white"/>
<path d="M65.6999 124.914L65.2831 124.857C67.0024 108.503 68.6905 91.7189 70.3369 75.5006C71.9729 59.3389 73.661 42.6227 75.3699 26.3252L75.7867 26.3705C74.0778 42.6566 72.3897 59.3729 70.7537 75.5346C69.1177 91.7642 67.4192 108.537 65.6999 124.902V124.914Z" fill="white"/>
<path d="M49.4964 111.615L49.09 111.536C51.9451 95.2158 54.7169 78.5788 57.3949 62.485C60.0729 46.3912 62.8447 29.7542 65.6999 13.4341L66.1063 13.5133C63.2511 29.8334 60.4793 46.4705 57.8013 62.5642C55.1233 78.658 52.3515 95.295 49.4964 111.615Z" fill="white"/>
<path d="M34.0744 106.047L33.668 105.934C37.6694 89.6024 41.4623 73.2257 45.1407 57.3923C48.8086 41.5701 52.6016 25.216 56.603 8.90723L57.0094 9.0204C53.0184 25.3292 49.2255 41.6833 45.5575 57.5054C41.8896 73.3389 38.0862 89.7156 34.0848 106.047H34.0744Z" fill="white"/>
<path d="M16.7975 101.848L16.4015 101.701C21.5387 85.3809 26.6029 69.3097 31.6568 53.2499C36.7106 37.1901 41.7749 21.1303 46.9121 4.79883L47.3081 4.94596C42.1709 21.2661 37.1066 37.3372 32.0528 53.3971C26.9989 69.4569 21.9347 85.5167 16.7975 101.848Z" fill="white"/>
</g>
<defs>
<clipPath id="clip0_40_5503">
<rect width="180" height="140" fill="white"/>
</clipPath>
</defs>
</svg>
